<svg xmlns="http://www.w3.org/2000/svg" version="1.0" width="2048mm" height="2048mm" viewBox="0 0 2048 2048"><path fill="none" stroke="Black" stroke-width="0.1" d="M 0.0,128.0 C 25.6 125.0 67.67 115.37 51.84 140.97 C 36.0 166.57 87.2 166.57 77.44 140.97 C 67.67 115.37 102.4 124.31 128.0 128.0 C 153.6 131.69 191.96 117.44 183.07 143.04 C 174.17 168.64 225.37 168.64 208.67 143.04 C 191.96 117.44 230.4 128.16 256.0 128.0 C 281.6 127.84 310.07 136.26 302.31 110.66 C 294.54 85.06 345.74 85.06 327.91 110.66 C 310.07 136.26 358.4 127.78 384.0 128.0 C 409.6 128.22 452.34 143.67 440.12 118.07 C 427.89 92.47 479.09 92.47 465.72 118.07 C 452.34 143.67 486.4 131.88 512.0 128.0 C 537.6 124.12 576.35 110.79 563.52 136.39 C 550.69 161.99 601.89 161.99 589.12 136.39 C 576.35 110.79 614.4 126.93 640.0 128.0 C 665.6 129.07 698.36 114.74 690.67 140.34 C 682.99 165.94 734.19 165.94 716.27 140.34 C 698.36 114.74 742.4 122.99 768.0 128.0 C 793.6 133.01 840.96 112.51 824.25 138.11 C 807.55 163.71 858.75 163.71 849.85 138.11 C 840.96 112.51 870.4 125.45 896.0 128.0 C 921.6 130.55 961.14 111.56 950.42 137.16 C 939.69 162.76 990.89 162.76 976.02 137.16 C 961.14 111.56 998.4 131.61 1024.0 128.0 C 1049.6 124.39 1087.67 117.37 1070.91 142.97 C 1054.15 168.57 1105.35 168.57 1096.51 142.97 C 1087.67 117.37 1126.4 123.83 1152.0 128.0 C 1177.6 132.17 1220.54 137.51 1206.73 111.91 C 1192.91 86.31 1244.11 86.31 1232.33 111.91 C 1220.54 137.51 1254.4 123.79 1280.0 128.0 C 1305.6 132.21 1340.75 118.08 1331.88 143.68 C 1323.01 169.28 1374.21 169.28 1357.48 143.68 C 1340.75 118.08 1382.4 130.38 1408.0 128.0 C 1433.6 125.62 1467.64 119.74 1454.17 145.34 C 1440.7 170.94 1491.9 170.94 1479.77 145.34 C 1467.64 119.74 1510.4 127.92 1536.0 128.0 C 1561.6 128.08 1604.06 119.18 1586.79 144.78 C 1569.52 170.38 1620.72 170.38 1612.39 144.78 C 1604.06 119.18 1638.4 131.4 1664.0 128.0 C 1689.6 124.6 1730.72 142.61 1715.28 117.01 C 1699.85 91.41 1751.05 91.41 1740.88 117.01 C 1730.72 142.61 1766.4 127.27 1792.0 128.0 C 1817.6 128.73 1859.27 137.71 1845.98 112.11 C 1832.69 86.51 1883.89 86.51 1871.58 112.11 C 1859.27 137.71 1894.4 128.16 1920.0 128.0 C 1945.6 127.84 1982.4 111.7 1971.83 137.3 C 1961.27 162.9 2012.47 162.9 1997.43 137.3 C 1982.4 111.7 2022.4 130.46 2048.0 128.0 M 0.0,256.0 C 25.6 252.64 72.72 239.37 55.5 264.97 C 38.28 290.57 89.48 290.57 81.1 264.97 C 72.72 239.37 102.4 259.14 128.0 256.0 C 153.6 252.86 190.49 268.9 180.07 243.3 C 169.65 217.7 220.85 217.7 205.67 243.3 C 190.49 268.9 230.4 254.45 256.0 256.0 C 281.6 257.55 316.57 247.07 304.25 272.67 C 291.93 298.27 343.13 298.27 329.85 272.67 C 316.57 247.07 358.4 259.81 384.0 256.0 C 409.6 252.19 448.6 272.19 435.17 246.59 C 421.74 220.99 472.94 220.99 460.77 246.59 C 448.6 272.19 486.4 258.94 512.0 256.0 C 537.6 253.06 577.07 268.69 564.5 243.09 C 551.92 217.49 603.12 217.49 590.1 243.09 C 577.07 268.69 614.4 261.04 640.0 256.0 C 665.6 250.96 703.41 239.63 690.76 265.23 C 678.12 290.83 729.32 290.83 716.36 265.23 C 703.41 239.63 742.4 254.06 768.0 256.0 C 793.6 257.94 838.44 239.87 822.63 265.47 C 806.81 291.07 858.01 291.07 848.23 265.47 C 838.44 239.87 870.4 260.63 896.0 256.0 C 921.6 251.37 964.83 269.82 947.55 244.22 C 930.27 218.62 981.47 218.62 973.15 244.22 C 964.83 269.82 998.4 253.14 1024.0 256.0 C 1049.6 258.86 1088.61 271.3 1073.75 245.7 C 1058.88 220.1 1110.08 220.1 1099.35 245.7 C 1088.61 271.3 1126.4 257.61 1152.0 256.0 C 1177.6 254.39 1211.38 265.77 1199.02 240.17 C 1186.65 214.57 1237.85 214.57 1224.62 240.17 C 1211.38 265.77 1254.4 254.31 1280.0 256.0 C 1305.6 257.69 1352.38 241.46 1334.47 267.06 C 1316.56 292.66 1367.76 292.66 1360.07 267.06 C 1352.38 241.46 1382.4 255.13 1408.0 256.0 C 1433.6 256.87 1476.52 272.43 1463.78 246.83 C 1451.04 221.23 1502.24 221.23 1489.38 246.83 C 1476.52 272.43 1510.4 254.71 1536.0 256.0 C 1561.6 257.29 1601.92 238.48 1589.82 264.08 C 1577.73 289.68 1628.93 289.68 1615.42 264.08 C 1601.92 238.48 1638.4 253.5 1664.0 256.0 C 1689.6 258.5 1727.26 239.45 1713.65 265.05 C 1700.04 290.65 1751.24 290.65 1739.25 265.05 C 1727.26 239.45 1766.4 256.86 1792.0 256.0 C 1817.6 255.14 1855.03 245.98 1846.05 271.58 C 1837.06 297.18 1888.26 297.18 1871.65 271.58 C 1855.03 245.98 1894.4 257.87 1920.0 256.0 C 1945.6 254.13 1978.44 264.75 1966.38 239.15 C 1954.33 213.55 2005.53 213.55 1991.98 239.15 C 1978.44 264.75 2022.4 253.04 2048.0 256.0 M 0.0,384.0 C 25.6 384.76 67.07 397.73 53.3 372.13 C 39.53 346.53 90.73 346.53 78.9 372.13 C 67.07 397.73 102.4 379.09 128.0 384.0 C 153.6 388.91 190.5 396.57 182.79 370.97 C 175.08 345.37 226.28 345.37 208.39 370.97 C 190.5 396.57 230.4 380.49 256.0 384.0 C 281.6 387.51 316.48 396.82 308.62 371.22 C 300.75 345.62 351.95 345.62 334.22 371.22 C 316.48 396.82 358.4 379.69 384.0 384.0 C 409.6 388.31 448.74 370.17 438.65 395.77 C 428.56 421.37 479.76 421.37 464.25 395.77 C 448.74 370.17 486.4 381.91 512.0 384.0 C 537.6 386.09 572.76 401.08 558.75 375.48 C 544.74 349.88 595.94 349.88 584.35 375.48 C 572.76 401.08 614.4 385.12 640.0 384.0 C 665.6 382.88 702.88 392.24 688.47 366.64 C 674.06 341.04 725.26 341.04 714.07 366.64 C 702.88 392.24 742.4 384.69 768.0 384.0 C 793.6 383.31 830.22 393.58 816.92 367.98 C 803.62 342.38 854.82 342.38 842.52 367.98 C 830.22 393.58 870.4 378.93 896.0 384.0 C 921.6 389.07 958.64 368.64 942.18 394.24 C 925.71 419.84 976.91 419.84 967.78 394.24 C 958.64 368.64 998.4 387.59 1024.0 384.0 C 1049.6 380.41 1085.86 370.2 1077.13 395.8 C 1068.4 421.4 1119.6 421.4 1102.73 395.8 C 1085.86 370.2 1126.4 385.18 1152.0 384.0 C 1177.6 382.82 1216.3 400.55 1200.62 374.95 C 1184.95 349.35 1236.15 349.35 1226.22 374.95 C 1216.3 400.55 1254.4 388.26 1280.0 384.0 C 1305.6 379.74 1342.63 369.83 1329.77 395.43 C 1316.92 421.03 1368.12 421.03 1355.37 395.43 C 1342.63 369.83 1382.4 379.51 1408.0 384.0 C 1433.6 388.49 1474.83 393.8 1459.19 368.2 C 1443.54 342.6 1494.74 342.6 1484.79 368.2 C 1474.83 393.8 1510.4 386.99 1536.0 384.0 C 1561.6 381.01 1599.76 400.42 1583.57 374.82 C 1567.37 349.22 1618.57 349.22 1609.17 374.82 C 1599.76 400.42 1638.4 385.65 1664.0 384.0 C 1689.6 382.35 1727.53 375.45 1712.87 401.05 C 1698.21 426.65 1749.41 426.65 1738.47 401.05 C 1727.53 375.45 1766.4 379.58 1792.0 384.0 C 1817.6 388.42 1850.92 401.42 1842.25 375.82 C 1833.57 350.22 1884.77 350.22 1867.85 375.82 C 1850.92 401.42 1894.4 388.56 1920.0 384.0 C 1945.6 379.44 1981.81 392.51 1973.98 366.91 C 1966.15 341.31 2017.35 341.31 1999.58 366.91 C 1981.81 392.51 2022.4 385.66 2048.0 384.0 M 0.0,512.0 C 25.6 508.3 59.39 496.74 50.57 522.34 C 41.74 547.94 92.94 547.94 76.17 522.34 C 59.39 496.74 102.4 515.22 128.0 512.0 C 153.6 508.78 187.55 500.1 179.05 525.7 C 170.55 551.3 221.75 551.3 204.65 525.7 C 187.55 500.1 230.4 508.89 256.0 512.0 C 281.6 515.11 326.73 501.07 309.78 526.67 C 292.84 552.27 344.04 552.27 335.38 526.67 C 326.73 501.07 358.4 511.72 384.0 512.0 C 409.6 512.28 448.3 498.9 435.15 524.5 C 422.0 550.1 473.2 550.1 460.75 524.5 C 448.3 498.9 486.4 515.87 512.0 512.0 C 537.6 508.13 573.83 495.61 562.24 521.21 C 550.66 546.81 601.86 546.81 587.84 521.21 C 573.83 495.61 614.4 514.88 640.0 512.0 C 665.6 509.12 704.97 498.68 688.83 524.28 C 672.69 549.88 723.89 549.88 714.43 524.28 C 704.97 498.68 742.4 516.36 768.0 512.0 C 793.6 507.64 837.68 528.68 821.83 503.08 C 805.99 477.48 857.19 477.48 847.43 503.08 C 837.68 528.68 870.4 511.19 896.0 512.0 C 921.6 512.81 956.04 523.59 942.42 497.99 C 928.8 472.39 980.0 472.39 968.02 497.99 C 956.04 523.59 998.4 509.54 1024.0 512.0 C 1049.6 514.46 1087.06 528.28 1073.97 502.68 C 1060.88 477.08 1112.08 477.08 1099.57 502.68 C 1087.06 528.28 1126.4 509.09 1152.0 512.0 C 1177.6 514.91 1212.64 499.36 1204.33 524.96 C 1196.01 550.56 1247.21 550.56 1229.93 524.96 C 1212.64 499.36 1254.4 510.57 1280.0 512.0 C 1305.6 513.43 1334.79 494.31 1326.65 519.91 C 1318.51 545.51 1369.71 545.51 1352.25 519.91 C 1334.79 494.31 1382.4 509.17 1408.0 512.0 C 1433.6 514.83 1471.14 523.87 1458.6 498.27 C 1446.05 472.67 1497.25 472.67 1484.2 498.27 C 1471.14 523.87 1510.4 514.66 1536.0 512.0 C 1561.6 509.34 1597.55 502.43 1583.58 528.03 C 1569.61 553.63 1620.81 553.63 1609.18 528.03 C 1597.55 502.43 1638.4 510.13 1664.0 512.0 C 1689.6 513.87 1724.07 503.93 1710.65 529.53 C 1697.22 555.13 1748.42 555.13 1736.25 529.53 C 1724.07 503.93 1766.4 507.98 1792.0 512.0 C 1817.6 516.02 1852.26 502.08 1839.85 527.68 C 1827.44 553.28 1878.64 553.28 1865.45 527.68 C 1852.26 502.08 1894.4 508.42 1920.0 512.0 C 1945.6 515.58 1985.15 496.91 1974.81 522.51 C 1964.48 548.11 2015.68 548.11 2000.41 522.51 C 1985.15 496.91 2022.4 512.4 2048.0 512.0 M 0.0,640.0 C 25.6 636.27 65.09 625.49 54.46 651.09 C 43.82 676.69 95.02 676.69 80.06 651.09 C 65.09 625.49 102.4 642.17 128.0 640.0 C 153.6 637.83 197.29 631.77 183.74 657.37 C 170.18 682.97 221.38 682.97 209.34 657.37 C 197.29 631.77 230.4 640.29 256.0 640.0 C 281.6 639.71 327.18 651.32 311.51 625.72 C 295.85 600.12 347.05 600.12 337.11 625.72 C 327.18 651.32 358.4 641.88 384.0 640.0 C 409.6 638.12 447.8 647.98 435.83 622.38 C 423.86 596.78 475.06 596.78 461.43 622.38 C 447.8 647.98 486.4 643.27 512.0 640.0 C 537.6 636.73 578.14 650.91 561.88 625.31 C 545.61 599.71 596.81 599.71 587.48 625.31 C 578.14 650.91 614.4 644.62 640.0 640.0 C 665.6 635.38 704.86 657.87 691.87 632.27 C 678.89 606.67 730.09 606.67 717.47 632.27 C 704.86 657.87 742.4 642.16 768.0 640.0 C 793.6 637.84 831.7 650.2 824.01 624.6 C 816.33 599.0 867.53 599.0 849.61 624.6 C 831.7 650.2 870.4 642.17 896.0 640.0 C 921.6 637.83 966.96 629.53 950.62 655.13 C 934.27 680.73 985.47 680.73 976.22 655.13 C 966.96 629.53 998.4 636.41 1024.0 640.0 C 1049.6 643.59 1093.61 649.5 1077.09 623.9 C 1060.57 598.3 1111.77 598.3 1102.69 623.9 C 1093.61 649.5 1126.4 640.9 1152.0 640.0 C 1177.6 639.1 1220.21 648.65 1206.27 623.05 C 1192.33 597.45 1243.53 597.45 1231.87 623.05 C 1220.21 648.65 1254.4 637.75 1280.0 640.0 C 1305.6 642.25 1335.45 631.75 1327.27 657.35 C 1319.08 682.95 1370.28 682.95 1352.87 657.35 C 1335.45 631.75 1382.4 643.37 1408.0 640.0 C 1433.6 636.63 1468.22 653.3 1457.6 627.7 C 1446.98 602.1 1498.18 602.1 1483.2 627.7 C 1468.22 653.3 1510.4 642.84 1536.0 640.0 C 1561.6 637.16 1599.3 652.02 1586.3 626.42 C 1573.3 600.82 1624.5 600.82 1611.9 626.42 C 1599.3 652.02 1638.4 644.44 1664.0 640.0 C 1689.6 635.56 1722.17 630.04 1713.27 655.64 C 1704.37 681.24 1755.57 681.24 1738.87 655.64 C 1722.17 630.04 1766.4 642.22 1792.0 640.0 C 1817.6 637.78 1862.34 655.09 1845.99 629.49 C 1829.64 603.89 1880.84 603.89 1871.59 629.49 C 1862.34 655.09 1894.4 644.7 1920.0 640.0 C 1945.6 635.3 1981.81 627.78 1969.38 653.38 C 1956.94 678.98 2008.14 678.98 1994.98 653.38 C 1981.81 627.78 2022.4 644.59 2048.0 640.0 M 0.0,768.0 C 25.6 770.92 68.86 784.53 51.65 758.93 C 34.44 733.33 85.64 733.33 77.25 758.93 C 68.86 784.53 102.4 771.12 128.0 768.0 C 153.6 764.88 189.64 755.37 177.7 780.97 C 165.77 806.57 216.97 806.57 203.3 780.97 C 189.64 755.37 230.4 771.26 256.0 768.0 C 281.6 764.74 324.86 758.26 308.86 783.86 C 292.86 809.46 344.06 809.46 334.46 783.86 C 324.86 758.26 358.4 765.77 384.0 768.0 C 409.6 770.23 443.31 752.46 433.48 778.06 C 423.66 803.66 474.86 803.66 459.08 778.06 C 443.31 752.46 486.4 768.93 512.0 768.0 C 537.6 767.07 566.99 759.97 559.17 785.57 C 551.34 811.17 602.54 811.17 584.77 785.57 C 566.99 759.97 614.4 765.45 640.0 768.0 C 665.6 770.55 697.1 777.87 688.7 752.27 C 680.31 726.67 731.51 726.67 714.3 752.27 C 697.1 777.87 742.4 768.89 768.0 768.0 C 793.6 767.11 838.44 782.27 823.25 756.67 C 808.07 731.07 859.27 731.07 848.85 756.67 C 838.44 782.27 870.4 764.9 896.0 768.0 C 921.6 771.1 961.72 752.63 946.38 778.23 C 931.04 803.83 982.24 803.83 971.98 778.23 C 961.72 752.63 998.4 770.04 1024.0 768.0 C 1049.6 765.96 1091.18 785.75 1078.13 760.15 C 1065.07 734.55 1116.27 734.55 1103.73 760.15 C 1091.18 785.75 1126.4 772.82 1152.0 768.0 C 1177.6 763.18 1216.5 756.98 1203.4 782.58 C 1190.3 808.18 1241.5 808.18 1229.0 782.58 C 1216.5 756.98 1254.4 770.85 1280.0 768.0 C 1305.6 765.15 1338.3 776.6 1330.57 751.0 C 1322.83 725.4 1374.03 725.4 1356.17 751.0 C 1338.3 776.6 1382.4 769.91 1408.0 768.0 C 1433.6 766.09 1475.1 758.8 1463.1 784.4 C 1451.1 810.0 1502.3 810.0 1488.7 784.4 C 1475.1 758.8 1510.4 771.44 1536.0 768.0 C 1561.6 764.56 1602.88 759.1 1589.75 784.7 C 1576.62 810.3 1627.82 810.3 1615.35 784.7 C 1602.88 759.1 1638.4 764.44 1664.0 768.0 C 1689.6 771.56 1726.95 776.3 1713.55 750.7 C 1700.15 725.1 1751.35 725.1 1739.15 750.7 C 1726.95 776.3 1766.4 770.06 1792.0 768.0 C 1817.6 765.94 1864.67 754.99 1847.46 780.59 C 1830.25 806.19 1881.45 806.19 1873.06 780.59 C 1864.67 754.99 1894.4 765.95 1920.0 768.0 C 1945.6 770.05 1983.44 759.28 1974.27 784.88 C 1965.11 810.48 2016.31 810.48 1999.87 784.88 C 1983.44 759.28 2022.4 767.75 2048.0 768.0 M 0.0,896.0 C 25.6 896.49 67.66 887.63 52.93 913.23 C 38.2 938.83 89.4 938.83 78.53 913.23 C 67.66 887.63 102.4 896.08 128.0 896.0 C 153.6 895.92 195.7 879.5 182.44 905.1 C 169.18 930.7 220.38 930.7 208.04 905.1 C 195.7 879.5 230.4 895.8 256.0 896.0 C 281.6 896.2 319.71 910.81 308.52 885.21 C 297.33 859.61 348.53 859.61 334.12 885.21 C 319.71 910.81 358.4 899.81 384.0 896.0 C 409.6 892.19 451.0 909.41 437.47 883.81 C 423.95 858.21 475.15 858.21 463.07 883.81 C 451.0 909.41 486.4 892.86 512.0 896.0 C 537.6 899.14 576.69 908.62 560.79 883.02 C 544.88 857.42 596.08 857.42 586.39 883.02 C 576.69 908.62 614.4 899.57 640.0 896.0 C 665.6 892.43 703.66 904.09 689.03 878.49 C 674.4 852.89 725.6 852.89 714.63 878.49 C 703.66 904.09 742.4 900.59 768.0 896.0 C 793.6 891.41 831.92 907.13 817.47 881.53 C 803.02 855.93 854.22 855.93 843.07 881.53 C 831.92 907.13 870.4 897.28 896.0 896.0 C 921.6 894.72 961.3 905.57 945.11 879.97 C 928.93 854.37 980.13 854.37 970.71 879.97 C 961.3 905.57 998.4 900.59 1024.0 896.0 C 1049.6 891.41 1086.9 878.3 1075.98 903.9 C 1065.07 929.5 1116.27 929.5 1101.58 903.9 C 1086.9 878.3 1126.4 893.88 1152.0 896.0 C 1177.6 898.12 1210.47 912.78 1202.3 887.18 C 1194.14 861.58 1245.34 861.58 1227.9 887.18 C 1210.47 912.78 1254.4 897.61 1280.0 896.0 C 1305.6 894.39 1345.59 878.91 1331.39 904.51 C 1317.2 930.11 1368.4 930.11 1356.99 904.51 C 1345.59 878.91 1382.4 892.62 1408.0 896.0 C 1433.6 899.38 1469.47 908.8 1455.74 883.2 C 1442.01 857.6 1493.21 857.6 1481.34 883.2 C 1469.47 908.8 1510.4 899.35 1536.0 896.0 C 1561.6 892.65 1596.81 885.53 1584.64 911.13 C 1572.46 936.73 1623.66 936.73 1610.24 911.13 C 1596.81 885.53 1638.4 892.89 1664.0 896.0 C 1689.6 899.11 1727.34 905.7 1715.85 880.1 C 1704.36 854.5 1755.56 854.5 1741.45 880.1 C 1727.34 905.7 1766.4 900.11 1792.0 896.0 C 1817.6 891.89 1856.83 887.69 1847.69 913.29 C 1838.55 938.89 1889.75 938.89 1873.29 913.29 C 1856.83 887.69 1894.4 894.95 1920.0 896.0 C 1945.6 897.05 1981.39 909.08 1972.85 883.48 C 1964.31 857.88 2015.51 857.88 1998.45 883.48 C 1981.39 909.08 2022.4 895.27 2048.0 896.0 M 0.0,1024.0 C 25.6 1027.66 64.39 1015.48 49.7 1041.08 C 35.02 1066.68 86.22 1066.68 75.3 1041.08 C 64.39 1015.48 102.4 1023.99 128.0 1024.0 C 153.6 1024.01 185.7 1008.05 174.93 1033.65 C 164.16 1059.25 215.36 1059.25 200.53 1033.65 C 185.7 1008.05 230.4 1028.82 256.0 1024.0 C 281.6 1019.18 329.15 1033.35 311.3 1007.75 C 293.45 982.15 344.65 982.15 336.9 1007.75 C 329.15 1033.35 358.4 1020.04 384.0 1024.0 C 409.6 1027.96 447.61 1037.07 433.37 1011.47 C 419.12 985.87 470.32 985.87 458.97 1011.47 C 447.61 1037.07 486.4 1026.99 512.0 1024.0 C 537.6 1021.01 574.74 1032.2 565.07 1006.6 C 555.39 981.0 606.59 981.0 590.67 1006.6 C 574.74 1032.2 614.4 1026.45 640.0 1024.0 C 665.6 1021.55 706.06 1038.06 696.02 1012.46 C 685.97 986.86 737.17 986.86 721.62 1012.46 C 706.06 1038.06 742.4 1026.35 768.0 1024.0 C 793.6 1021.65 831.37 1014.47 815.45 1040.07 C 799.54 1065.67 850.74 1065.67 841.05 1040.07 C 831.37 1014.47 870.4 1022.39 896.0 1024.0 C 921.6 1025.61 967.67 1031.81 951.56 1006.21 C 935.45 980.61 986.65 980.61 977.16 1006.21 C 967.67 1031.81 998.4 1026.95 1024.0 1024.0 C 1049.6 1021.05 1080.09 1040.26 1071.59 1014.66 C 1063.09 989.06 1114.29 989.06 1097.19 1014.66 C 1080.09 1040.26 1126.4 1023.99 1152.0 1024.0 C 1177.6 1024.01 1217.33 1035.11 1207.36 1009.51 C 1197.39 983.91 1248.59 983.91 1232.96 1009.51 C 1217.33 1035.11 1254.4 1023.49 1280.0 1024.0 C 1305.6 1024.51 1346.23 1036.5 1332.93 1010.9 C 1319.63 985.3 1370.83 985.3 1358.53 1010.9 C 1346.23 1036.5 1382.4 1026.58 1408.0 1024.0 C 1433.6 1021.42 1474.78 1012.63 1462.21 1038.23 C 1449.63 1063.83 1500.83 1063.83 1487.81 1038.23 C 1474.78 1012.63 1510.4 1025.85 1536.0 1024.0 C 1561.6 1022.15 1601.46 1007.89 1591.08 1033.49 C 1580.7 1059.09 1631.9 1059.09 1616.68 1033.49 C 1601.46 1007.89 1638.4 1019.22 1664.0 1024.0 C 1689.6 1028.78 1725.47 1037.41 1711.86 1011.81 C 1698.26 986.21 1749.46 986.21 1737.46 1011.81 C 1725.47 1037.41 1766.4 1020.66 1792.0 1024.0 C 1817.6 1027.34 1864.3 1036.25 1846.44 1010.65 C 1828.59 985.05 1879.79 985.05 1872.04 1010.65 C 1864.3 1036.25 1894.4 1024.22 1920.0 1024.0 C 1945.6 1023.78 1983.18 1032.78 1967.72 1007.18 C 1952.26 981.58 2003.46 981.58 1993.32 1007.18 C 1983.18 1032.78 2022.4 1027.17 2048.0 1024.0 M 0.0,1152.0 C 25.6 1152.65 66.13 1169.71 49.69 1144.11 C 33.24 1118.51 84.44 1118.51 75.29 1144.11 C 66.13 1169.71 102.4 1154.16 128.0 1152.0 C 153.6 1149.84 192.38 1164.6 180.37 1139.0 C 168.37 1113.4 219.57 1113.4 205.97 1139.0 C 192.38 1164.6 230.4 1149.57 256.0 1152.0 C 281.6 1154.43 320.27 1160.07 305.2 1134.47 C 290.14 1108.87 341.34 1108.87 330.8 1134.47 C 320.27 1160.07 358.4 1146.98 384.0 1152.0 C 409.6 1157.02 455.38 1161.76 439.66 1136.16 C 423.95 1110.56 475.15 1110.56 465.26 1136.16 C 455.38 1161.76 486.4 1153.07 512.0 1152.0 C 537.6 1150.93 571.0 1168.37 561.8 1142.77 C 552.6 1117.17 603.8 1117.17 587.4 1142.77 C 571.0 1168.37 614.4 1147.66 640.0 1152.0 C 665.6 1156.34 700.6 1162.35 691.07 1136.75 C 681.55 1111.15 732.75 1111.15 716.67 1136.75 C 700.6 1162.35 742.4 1152.58 768.0 1152.0 C 793.6 1151.42 829.44 1162.47 815.54 1136.87 C 801.63 1111.27 852.83 1111.27 841.14 1136.87 C 829.44 1162.47 870.4 1153.23 896.0 1152.0 C 921.6 1150.77 959.71 1167.99 951.93 1142.39 C 944.15 1116.79 995.35 1116.79 977.53 1142.39 C 959.71 1167.99 998.4 1149.51 1024.0 1152.0 C 1049.6 1154.49 1089.42 1161.81 1071.89 1136.21 C 1054.36 1110.61 1105.56 1110.61 1097.49 1136.21 C 1089.42 1161.81 1126.4 1147.6 1152.0 1152.0 C 1177.6 1156.4 1216.85 1167.08 1208.19 1141.48 C 1199.52 1115.88 1250.72 1115.88 1233.79 1141.48 C 1216.85 1167.08 1254.4 1148.39 1280.0 1152.0 C 1305.6 1155.61 1340.45 1163.61 1329.05 1138.01 C 1317.66 1112.41 1368.86 1112.41 1354.65 1138.01 C 1340.45 1163.61 1382.4 1156.75 1408.0 1152.0 C 1433.6 1147.25 1473.99 1136.74 1462.46 1162.34 C 1450.93 1187.94 1502.13 1187.94 1488.06 1162.34 C 1473.99 1136.74 1510.4 1153.36 1536.0 1152.0 C 1561.6 1150.64 1593.42 1140.41 1585.43 1166.01 C 1577.44 1191.61 1628.64 1191.61 1611.03 1166.01 C 1593.42 1140.41 1638.4 1148.83 1664.0 1152.0 C 1689.6 1155.17 1722.69 1138.64 1712.41 1164.24 C 1702.13 1189.84 1753.33 1189.84 1738.01 1164.24 C 1722.69 1138.64 1766.4 1153.07 1792.0 1152.0 C 1817.6 1150.93 1853.9 1162.4 1843.33 1136.8 C 1832.77 1111.2 1883.97 1111.2 1868.93 1136.8 C 1853.9 1162.4 1894.4 1155.28 1920.0 1152.0 C 1945.6 1148.72 1987.86 1159.86 1975.69 1134.26 C 1963.53 1108.66 2014.73 1108.66 2001.29 1134.26 C 1987.86 1159.86 2022.4 1148.74 2048.0 1152.0 M 0.0,1280.0 C 25.6 1275.07 65.47 1265.96 50.13 1291.56 C 34.78 1317.16 85.98 1317.16 75.73 1291.56 C 65.47 1265.96 102.4 1278.43 128.0 1280.0 C 153.6 1281.57 190.71 1296.18 177.78 1270.58 C 164.84 1244.98 216.04 1244.98 203.38 1270.58 C 190.71 1296.18 230.4 1276.55 256.0 1280.0 C 281.6 1283.45 320.81 1265.67 307.31 1291.27 C 293.8 1316.87 345.0 1316.87 332.91 1291.27 C 320.81 1265.67 358.4 1283.65 384.0 1280.0 C 409.6 1276.35 451.68 1288.84 439.28 1263.24 C 426.89 1237.64 478.09 1237.64 464.88 1263.24 C 451.68 1288.84 486.4 1281.85 512.0 1280.0 C 537.6 1278.15 578.78 1291.98 566.15 1266.38 C 553.52 1240.78 604.72 1240.78 591.75 1266.38 C 578.78 1291.98 614.4 1282.56 640.0 1280.0 C 665.6 1277.44 705.72 1292.14 688.32 1266.54 C 670.91 1240.94 722.11 1240.94 713.92 1266.54 C 705.72 1292.14 742.4 1284.19 768.0 1280.0 C 793.6 1275.81 834.18 1291.85 817.74 1266.25 C 801.3 1240.65 852.5 1240.65 843.34 1266.25 C 834.18 1291.85 870.4 1284.16 896.0 1280.0 C 921.6 1275.84 962.28 1269.01 945.08 1294.61 C 927.88 1320.21 979.08 1320.21 970.68 1294.61 C 962.28 1269.01 998.4 1281.96 1024.0 1280.0 C 1049.6 1278.04 1092.17 1294.16 1077.72 1268.56 C 1063.27 1242.96 1114.47 1242.96 1103.32 1268.56 C 1092.17 1294.16 1126.4 1284.88 1152.0 1280.0 C 1177.6 1275.12 1215.31 1289.77 1207.18 1264.17 C 1199.04 1238.57 1250.24 1238.57 1232.78 1264.17 C 1215.31 1289.77 1254.4 1281.51 1280.0 1280.0 C 1305.6 1278.49 1342.39 1262.84 1333.35 1288.44 C 1324.31 1314.04 1375.51 1314.04 1358.95 1288.44 C 1342.39 1262.84 1382.4 1282.83 1408.0 1280.0 C 1433.6 1277.17 1470.44 1263.97 1461.56 1289.57 C 1452.68 1315.17 1503.88 1315.17 1487.16 1289.57 C 1470.44 1263.97 1510.4 1280.41 1536.0 1280.0 C 1561.6 1279.59 1600.78 1292.46 1584.68 1266.86 C 1568.57 1241.26 1619.77 1241.26 1610.28 1266.86 C 1600.78 1292.46 1638.4 1277.61 1664.0 1280.0 C 1689.6 1282.39 1728.4 1293.83 1718.62 1268.23 C 1708.84 1242.63 1760.04 1242.63 1744.22 1268.23 C 1728.4 1293.83 1766.4 1281.44 1792.0 1280.0 C 1817.6 1278.56 1854.85 1293.44 1842.88 1267.84 C 1830.91 1242.24 1882.11 1242.24 1868.48 1267.84 C 1854.85 1293.44 1894.4 1278.93 1920.0 1280.0 C 1945.6 1281.07 1983.87 1292.93 1974.4 1267.33 C 1964.94 1241.73 2016.14 1241.73 2000.0 1267.33 C 1983.87 1292.93 2022.4 1277.57 2048.0 1280.0 M 0.0,1408.0 C 25.6 1412.8 61.83 1417.17 48.25 1391.57 C 34.67 1365.97 85.87 1365.97 73.85 1391.57 C 61.83 1417.17 102.4 1408.3 128.0 1408.0 C 153.6 1407.7 186.07 1400.0 174.35 1425.6 C 162.64 1451.2 213.84 1451.2 199.95 1425.6 C 186.07 1400.0 230.4 1408.29 256.0 1408.0 C 281.6 1407.71 313.76 1396.55 303.64 1422.15 C 293.51 1447.75 344.71 1447.75 329.24 1422.15 C 313.76 1396.55 358.4 1404.89 384.0 1408.0 C 409.6 1411.11 445.8 1392.73 436.61 1418.33 C 427.41 1443.93 478.61 1443.93 462.21 1418.33 C 445.8 1392.73 486.4 1409.94 512.0 1408.0 C 537.6 1406.06 581.86 1391.24 567.15 1416.84 C 552.43 1442.44 603.63 1442.44 592.75 1416.84 C 581.86 1391.24 614.4 1412.16 640.0 1408.0 C 665.6 1403.84 697.35 1390.65 686.93 1416.25 C 676.51 1441.85 727.71 1441.85 712.53 1416.25 C 697.35 1390.65 742.4 1406.32 768.0 1408.0 C 793.6 1409.68 829.62 1398.97 818.6 1424.57 C 807.58 1450.17 858.78 1450.17 844.2 1424.57 C 829.62 1398.97 870.4 1412.05 896.0 1408.0 C 921.6 1403.95 953.86 1425.82 943.69 1400.22 C 933.53 1374.62 984.73 1374.62 969.29 1400.22 C 953.86 1425.82 998.4 1410.63 1024.0 1408.0 C 1049.6 1405.37 1092.49 1418.7 1078.59 1393.1 C 1064.69 1367.5 1115.89 1367.5 1104.19 1393.1 C 1092.49 1418.7 1126.4 1407.02 1152.0 1408.0 C 1177.6 1408.98 1216.26 1421.55 1207.2 1395.95 C 1198.13 1370.35 1249.33 1370.35 1232.8 1395.95 C 1216.26 1421.55 1254.4 1409.09 1280.0 1408.0 C 1305.6 1406.91 1347.0 1392.44 1332.36 1418.04 C 1317.72 1443.64 1368.92 1443.64 1357.96 1418.04 C 1347.0 1392.44 1382.4 1408.55 1408.0 1408.0 C 1433.6 1407.45 1475.74 1418.19 1460.2 1392.59 C 1444.65 1366.99 1495.85 1366.99 1485.8 1392.59 C 1475.74 1418.19 1510.4 1406.41 1536.0 1408.0 C 1561.6 1409.59 1591.41 1397.96 1582.2 1423.56 C 1572.98 1449.16 1624.18 1449.16 1607.8 1423.56 C 1591.41 1397.96 1638.4 1406.21 1664.0 1408.0 C 1689.6 1409.79 1726.52 1417.38 1711.14 1391.78 C 1695.77 1366.18 1746.97 1366.18 1736.74 1391.78 C 1726.52 1417.38 1766.4 1406.1 1792.0 1408.0 C 1817.6 1409.9 1854.13 1421.21 1844.56 1395.61 C 1834.99 1370.01 1886.19 1370.01 1870.16 1395.61 C 1854.13 1421.21 1894.4 1405.38 1920.0 1408.0 C 1945.6 1410.62 1986.18 1392.91 1969.33 1418.51 C 1952.48 1444.11 2003.68 1444.11 1994.93 1418.51 C 1986.18 1392.91 2022.4 1407.62 2048.0 1408.0 M 0.0,1536.0 C 25.6 1537.29 69.43 1526.08 52.35 1551.68 C 35.28 1577.28 86.48 1577.28 77.95 1551.68 C 69.43 1526.08 102.4 1532.68 128.0 1536.0 C 153.6 1539.32 197.32 1545.1 183.21 1519.5 C 169.1 1493.9 220.3 1493.9 208.81 1519.5 C 197.32 1545.1 230.4 1538.37 256.0 1536.0 C 281.6 1533.63 314.51 1548.59 304.32 1522.99 C 294.13 1497.39 345.33 1497.39 329.92 1522.99 C 314.51 1548.59 358.4 1534.8 384.0 1536.0 C 409.6 1537.2 448.81 1547.58 434.88 1521.98 C 420.94 1496.38 472.14 1496.38 460.48 1521.98 C 448.81 1547.58 486.4 1533.09 512.0 1536.0 C 537.6 1538.91 580.93 1518.65 564.15 1544.25 C 547.37 1569.85 598.57 1569.85 589.75 1544.25 C 580.93 1518.65 614.4 1538.6 640.0 1536.0 C 665.6 1533.4 702.89 1527.83 689.39 1553.43 C 675.9 1579.03 727.1 1579.03 714.99 1553.43 C 702.89 1527.83 742.4 1532.21 768.0 1536.0 C 793.6 1539.79 825.64 1548.63 814.39 1523.03 C 803.14 1497.43 854.34 1497.43 839.99 1523.03 C 825.64 1548.63 870.4 1531.62 896.0 1536.0 C 921.6 1540.38 966.36 1545.02 950.99 1519.42 C 935.61 1493.82 986.81 1493.82 976.59 1519.42 C 966.36 1545.02 998.4 1540.42 1024.0 1536.0 C 1049.6 1531.58 1094.73 1548.03 1077.27 1522.43 C 1059.8 1496.83 1111.0 1496.83 1102.87 1522.43 C 1094.73 1548.03 1126.4 1538.64 1152.0 1536.0 C 1177.6 1533.36 1216.42 1553.2 1200.99 1527.6 C 1185.56 1502.0 1236.76 1502.0 1226.59 1527.6 C 1216.42 1553.2 1254.4 1531.86 1280.0 1536.0 C 1305.6 1540.14 1347.13 1552.48 1330.05 1526.88 C 1312.97 1501.28 1364.17 1501.28 1355.65 1526.88 C 1347.13 1552.48 1382.4 1533.76 1408.0 1536.0 C 1433.6 1538.24 1471.74 1520.75 1457.54 1546.35 C 1443.35 1571.95 1494.55 1571.95 1483.14 1546.35 C 1471.74 1520.75 1510.4 1540.45 1536.0 1536.0 C 1561.6 1531.55 1596.96 1519.5 1583.53 1545.1 C 1570.1 1570.7 1621.3 1570.7 1609.13 1545.1 C 1596.96 1519.5 1638.4 1538.48 1664.0 1536.0 C 1689.6 1533.52 1725.91 1544.4 1717.1 1518.8 C 1708.3 1493.2 1759.5 1493.2 1742.7 1518.8 C 1725.91 1544.4 1766.4 1535.7 1792.0 1536.0 C 1817.6 1536.3 1861.05 1552.31 1847.32 1526.71 C 1833.59 1501.11 1884.79 1501.11 1872.92 1526.71 C 1861.05 1552.31 1894.4 1536.52 1920.0 1536.0 C 1945.6 1535.48 1987.14 1552.66 1972.53 1527.06 C 1957.91 1501.46 2009.11 1501.46 1998.13 1527.06 C 1987.14 1552.66 2022.4 1538.54 2048.0 1536.0 M 0.0,1664.0 C 25.6 1663.26 65.39 1680.29 52.41 1654.69 C 39.42 1629.09 90.62 1629.09 78.01 1654.69 C 65.39 1680.29 102.4 1668.53 128.0 1664.0 C 153.6 1659.47 196.06 1652.56 181.06 1678.16 C 166.06 1703.76 217.26 1703.76 206.66 1678.16 C 196.06 1652.56 230.4 1668.4 256.0 1664.0 C 281.6 1659.6 322.35 1677.39 307.68 1651.79 C 293.0 1626.19 344.2 1626.19 333.28 1651.79 C 322.35 1677.39 358.4 1668.83 384.0 1664.0 C 409.6 1659.17 447.42 1676.4 436.2 1650.8 C 424.99 1625.2 476.19 1625.2 461.8 1650.8 C 447.42 1676.4 486.4 1666.27 512.0 1664.0 C 537.6 1661.73 571.75 1656.19 561.43 1681.79 C 551.11 1707.39 602.31 1707.39 587.03 1681.79 C 571.75 1656.19 614.4 1661.18 640.0 1664.0 C 665.6 1666.82 700.74 1681.14 688.31 1655.54 C 675.89 1629.94 727.09 1629.94 713.91 1655.54 C 700.74 1681.14 742.4 1664.16 768.0 1664.0 C 793.6 1663.84 830.28 1678.33 814.66 1652.73 C 799.03 1627.13 850.23 1627.13 840.26 1652.73 C 830.28 1678.33 870.4 1668.52 896.0 1664.0 C 921.6 1659.48 965.14 1649.54 947.64 1675.14 C 930.13 1700.74 981.33 1700.74 973.24 1675.14 C 965.14 1649.54 998.4 1665.72 1024.0 1664.0 C 1049.6 1662.28 1087.54 1681.47 1078.08 1655.87 C 1068.62 1630.27 1119.82 1630.27 1103.68 1655.87 C 1087.54 1681.47 1126.4 1668.1 1152.0 1664.0 C 1177.6 1659.9 1208.01 1649.33 1199.75 1674.93 C 1191.49 1700.53 1242.69 1700.53 1225.35 1674.93 C 1208.01 1649.33 1254.4 1668.87 1280.0 1664.0 C 1305.6 1659.13 1346.03 1673.78 1333.79 1648.18 C 1321.55 1622.58 1372.75 1622.58 1359.39 1648.18 C 1346.03 1673.78 1382.4 1665.82 1408.0 1664.0 C 1433.6 1662.18 1476.94 1653.42 1462.99 1679.02 C 1449.04 1704.62 1500.24 1704.62 1488.59 1679.02 C 1476.94 1653.42 1510.4 1659.7 1536.0 1664.0 C 1561.6 1668.3 1595.19 1651.91 1586.66 1677.51 C 1578.12 1703.11 1629.32 1703.11 1612.26 1677.51 C 1595.19 1651.91 1638.4 1663.52 1664.0 1664.0 C 1689.6 1664.48 1734.96 1650.16 1720.32 1675.76 C 1705.67 1701.36 1756.87 1701.36 1745.92 1675.76 C 1734.96 1650.16 1766.4 1662.39 1792.0 1664.0 C 1817.6 1665.61 1860.13 1655.66 1845.81 1681.26 C 1831.49 1706.86 1882.69 1706.86 1871.41 1681.26 C 1860.13 1655.66 1894.4 1669.07 1920.0 1664.0 C 1945.6 1658.93 1984.29 1674.7 1968.77 1649.1 C 1953.25 1623.5 2004.45 1623.5 1994.37 1649.1 C 1984.29 1674.7 2022.4 1668.7 2048.0 1664.0 M 0.0,1792.0 C 25.6 1788.11 67.13 1781.49 55.89 1807.09 C 44.65 1832.69 95.85 1832.69 81.49 1807.09 C 67.13 1781.49 102.4 1789.38 128.0 1792.0 C 153.6 1794.62 191.83 1781.58 176.49 1807.18 C 161.14 1832.78 212.34 1832.78 202.09 1807.18 C 191.83 1781.58 230.4 1790.12 256.0 1792.0 C 281.6 1793.88 325.9 1800.83 311.19 1775.23 C 296.49 1749.63 347.69 1749.63 336.79 1775.23 C 325.9 1800.83 358.4 1796.72 384.0 1792.0 C 409.6 1787.28 440.24 1782.47 431.23 1808.07 C 422.21 1833.67 473.41 1833.67 456.83 1808.07 C 440.24 1782.47 486.4 1793.35 512.0 1792.0 C 537.6 1790.65 579.78 1777.25 564.36 1802.85 C 548.94 1828.45 600.14 1828.45 589.96 1802.85 C 579.78 1777.25 614.4 1794.31 640.0 1792.0 C 665.6 1789.69 703.36 1782.46 686.75 1808.06 C 670.13 1833.66 721.33 1833.66 712.35 1808.06 C 703.36 1782.46 742.4 1792.64 768.0 1792.0 C 793.6 1791.36 827.12 1807.54 817.62 1781.94 C 808.13 1756.34 859.33 1756.34 843.22 1781.94 C 827.12 1807.54 870.4 1794.72 896.0 1792.0 C 921.6 1789.28 962.57 1809.15 949.37 1783.55 C 936.17 1757.95 987.37 1757.95 974.97 1783.55 C 962.57 1809.15 998.4 1788.24 1024.0 1792.0 C 1049.6 1795.76 1088.14 1801.83 1073.22 1776.23 C 1058.29 1750.63 1109.49 1750.63 1098.82 1776.23 C 1088.14 1801.83 1126.4 1793.82 1152.0 1792.0 C 1177.6 1790.18 1216.53 1804.84 1204.85 1779.24 C 1193.16 1753.64 1244.36 1753.64 1230.45 1779.24 C 1216.53 1804.84 1254.4 1793.5 1280.0 1792.0 C 1305.6 1790.5 1341.26 1799.81 1329.79 1774.21 C 1318.31 1748.61 1369.51 1748.61 1355.39 1774.21 C 1341.26 1799.81 1382.4 1793.82 1408.0 1792.0 C 1433.6 1790.18 1475.6 1775.83 1457.81 1801.43 C 1440.02 1827.03 1491.22 1827.03 1483.41 1801.43 C 1475.6 1775.83 1510.4 1793.66 1536.0 1792.0 C 1561.6 1790.34 1591.13 1803.88 1582.79 1778.28 C 1574.44 1752.68 1625.64 1752.68 1608.39 1778.28 C 1591.13 1803.88 1638.4 1789.77 1664.0 1792.0 C 1689.6 1794.23 1725.83 1806.02 1717.02 1780.42 C 1708.2 1754.82 1759.4 1754.82 1742.62 1780.42 C 1725.83 1806.02 1766.4 1796.18 1792.0 1792.0 C 1817.6 1787.82 1852.96 1779.29 1840.22 1804.89 C 1827.47 1830.49 1878.67 1830.49 1865.82 1804.89 C 1852.96 1779.29 1894.4 1791.44 1920.0 1792.0 C 1945.6 1792.56 1980.55 1800.49 1969.58 1774.89 C 1958.62 1749.29 2009.82 1749.29 1995.18 1774.89 C 1980.55 1800.49 2022.4 1789.56 2048.0 1792.0 M 0.0,1920.0 C 25.6 1917.52 66.06 1909.11 51.08 1934.71 C 36.1 1960.31 87.3 1960.31 76.68 1934.71 C 66.06 1909.11 102.4 1924.77 128.0 1920.0 C 153.6 1915.23 197.56 1932.94 180.14 1907.34 C 162.72 1881.74 213.92 1881.74 205.74 1907.34 C 197.56 1932.94 230.4 1916.22 256.0 1920.0 C 281.6 1923.78 323.66 1929.97 311.96 1904.37 C 300.26 1878.77 351.46 1878.77 337.56 1904.37 C 323.66 1929.97 358.4 1917.93 384.0 1920.0 C 409.6 1922.07 455.07 1930.94 437.81 1905.34 C 420.56 1879.74 471.76 1879.74 463.41 1905.34 C 455.07 1930.94 486.4 1916.98 512.0 1920.0 C 537.6 1923.02 573.83 1930.81 565.47 1905.21 C 557.11 1879.61 608.31 1879.61 591.07 1905.21 C 573.83 1930.81 614.4 1919.08 640.0 1920.0 C 665.6 1920.92 701.62 1932.11 687.12 1906.51 C 672.62 1880.91 723.82 1880.91 712.72 1906.51 C 701.62 1932.11 742.4 1919.32 768.0 1920.0 C 793.6 1920.68 828.85 1906.02 819.68 1931.62 C 810.51 1957.22 861.71 1957.22 845.28 1931.62 C 828.85 1906.02 870.4 1918.18 896.0 1920.0 C 921.6 1921.82 957.31 1929.06 947.94 1903.46 C 938.56 1877.86 989.76 1877.86 973.54 1903.46 C 957.31 1929.06 998.4 1924.88 1024.0 1920.0 C 1049.6 1915.12 1092.34 1935.27 1074.43 1909.67 C 1056.52 1884.07 1107.72 1884.07 1100.03 1909.67 C 1092.34 1935.27 1126.4 1916.62 1152.0 1920.0 C 1177.6 1923.38 1217.88 1909.49 1203.1 1935.09 C 1188.32 1960.69 1239.52 1960.69 1228.7 1935.09 C 1217.88 1909.49 1254.4 1920.56 1280.0 1920.0 C 1305.6 1919.44 1342.82 1933.81 1332.49 1908.21 C 1322.16 1882.61 1373.36 1882.61 1358.09 1908.21 C 1342.82 1933.81 1382.4 1923.88 1408.0 1920.0 C 1433.6 1916.12 1474.17 1905.76 1457.79 1931.36 C 1441.41 1956.96 1492.61 1956.96 1483.39 1931.36 C 1474.17 1905.76 1510.4 1924.24 1536.0 1920.0 C 1561.6 1915.76 1604.43 1905.11 1586.89 1930.71 C 1569.36 1956.31 1620.56 1956.31 1612.49 1930.71 C 1604.43 1905.11 1638.4 1921.23 1664.0 1920.0 C 1689.6 1918.77 1728.55 1936.88 1720.07 1911.28 C 1711.6 1885.68 1762.8 1885.68 1745.67 1911.28 C 1728.55 1936.88 1766.4 1921.51 1792.0 1920.0 C 1817.6 1918.49 1863.04 1928.62 1845.7 1903.02 C 1828.37 1877.42 1879.57 1877.42 1871.3 1903.02 C 1863.04 1928.62 1894.4 1918.77 1920.0 1920.0 C 1945.6 1921.23 1982.82 1936.37 1973.4 1910.77 C 1963.98 1885.17 2015.18 1885.17 1999.0 1910.77 C 1982.82 1936.37 2022.4 1914.91 2048.0 1920.0 "></path><path fill="none" stroke="Black" stroke-width="0.1" d="M 128.0,0.0 C 132.62 25.6 136.86 63.59 111.26 51.76 C 85.66 39.93 85.66 91.13 111.26 77.36 C 136.86 63.59 125.93 102.4 128.0 128.0 C 130.07 153.6 140.39 192.02 114.79 183.27 C 89.19 174.52 89.19 225.72 114.79 208.87 C 140.39 192.02 125.75 230.4 128.0 256.0 C 130.25 281.6 144.75 325.13 119.15 307.58 C 93.55 290.02 93.55 341.22 119.15 333.18 C 144.75 325.13 132.29 358.4 128.0 384.0 C 123.71 409.6 111.64 454.82 137.24 437.81 C 162.84 420.8 162.84 472.0 137.24 463.41 C 111.64 454.82 123.73 486.4 128.0 512.0 C 132.27 537.6 145.11 577.45 119.51 563.58 C 93.91 549.71 93.91 600.91 119.51 589.18 C 145.11 577.45 127.06 614.4 128.0 640.0 C 128.94 665.6 116.81 702.5 142.41 687.86 C 168.01 673.22 168.01 724.42 142.41 713.46 C 116.81 702.5 128.88 742.4 128.0 768.0 C 127.12 793.6 111.92 835.9 137.52 818.09 C 163.12 800.29 163.12 851.49 137.52 843.69 C 111.92 835.9 126.83 870.4 128.0 896.0 C 129.17 921.6 114.4 966.74 140.0 951.13 C 165.6 935.53 165.6 986.73 140.0 976.73 C 114.4 966.74 126.89 998.4 128.0 1024.0 C 129.11 1049.6 110.62 1088.72 136.22 1078.13 C 161.82 1067.54 161.82 1118.74 136.22 1103.73 C 110.62 1088.72 126.5 1126.4 128.0 1152.0 C 129.5 1177.6 141.5 1214.79 115.9 1204.13 C 90.3 1193.46 90.3 1244.66 115.9 1229.73 C 141.5 1214.79 131.88 1254.4 128.0 1280.0 C 124.12 1305.6 141.96 1350.1 116.36 1335.1 C 90.76 1320.1 90.76 1371.3 116.36 1360.7 C 141.96 1350.1 130.36 1382.4 128.0 1408.0 C 125.64 1433.6 141.16 1479.43 115.56 1462.18 C 89.96 1444.94 89.96 1496.14 115.56 1487.78 C 141.16 1479.43 128.01 1510.4 128.0 1536.0 C 127.99 1561.6 113.99 1598.58 139.59 1585.04 C 165.19 1571.51 165.19 1622.71 139.59 1610.64 C 113.99 1598.58 122.9 1638.4 128.0 1664.0 C 133.1 1689.6 118.09 1724.59 143.69 1711.06 C 169.29 1697.53 169.29 1748.73 143.69 1736.66 C 118.09 1724.59 123.52 1766.4 128.0 1792.0 C 132.48 1817.6 144.31 1854.62 118.71 1846.38 C 93.11 1838.14 93.11 1889.34 118.71 1871.98 C 144.31 1854.62 129.56 1894.4 128.0 1920.0 C 126.44 1945.6 142.2 1985.51 116.6 1974.28 C 91.0 1963.04 91.0 2014.24 116.6 1999.88 C 142.2 1985.51 131.69 2022.4 128.0 2048.0 M 256.0,0.0 C 252.54 25.6 244.02 57.57 269.62 47.79 C 295.22 38.01 295.22 89.21 269.62 73.39 C 244.02 57.57 260.28 102.4 256.0 128.0 C 251.72 153.6 243.73 193.88 269.33 176.42 C 294.93 158.96 294.93 210.16 269.33 202.02 C 243.73 193.88 257.15 230.4 256.0 256.0 C 254.85 281.6 267.73 323.54 242.13 307.78 C 216.53 292.03 216.53 343.23 242.13 333.38 C 267.73 323.54 259.03 358.4 256.0 384.0 C 252.97 409.6 268.01 453.71 242.41 439.51 C 216.81 425.3 216.81 476.5 242.41 465.11 C 268.01 453.71 257.86 486.4 256.0 512.0 C 254.14 537.6 270.05 583.71 244.45 568.23 C 218.85 552.74 218.85 603.94 244.45 593.83 C 270.05 583.71 254.84 614.4 256.0 640.0 C 257.16 665.6 239.11 706.58 264.71 695.76 C 290.31 684.93 290.31 736.13 264.71 721.36 C 239.11 706.58 258.97 742.4 256.0 768.0 C 253.03 793.6 243.99 830.32 269.59 815.26 C 295.19 800.2 295.19 851.4 269.59 840.86 C 243.99 830.32 256.23 870.4 256.0 896.0 C 255.77 921.6 273.62 964.71 248.02 947.69 C 222.42 930.68 222.42 981.88 248.02 973.29 C 273.62 964.71 258.29 998.4 256.0 1024.0 C 253.71 1049.6 239.92 1090.76 265.52 1073.51 C 291.12 1056.26 291.12 1107.46 265.52 1099.11 C 239.92 1090.76 253.91 1126.4 256.0 1152.0 C 258.09 1177.6 270.4 1217.71 244.8 1201.47 C 219.2 1185.24 219.2 1236.44 244.8 1227.07 C 270.4 1217.71 257.62 1254.4 256.0 1280.0 C 254.38 1305.6 247.49 1343.36 273.09 1327.81 C 298.69 1312.25 298.69 1363.45 273.09 1353.41 C 247.49 1343.36 260.34 1382.4 256.0 1408.0 C 251.66 1433.6 246.06 1474.24 271.66 1462.44 C 297.26 1450.64 297.26 1501.84 271.66 1488.04 C 246.06 1474.24 258.03 1510.4 256.0 1536.0 C 253.97 1561.6 243.35 1594.86 268.95 1584.8 C 294.55 1574.74 294.55 1625.94 268.95 1610.4 C 243.35 1594.86 254.13 1638.4 256.0 1664.0 C 257.87 1689.6 241.55 1731.77 267.15 1718.16 C 292.75 1704.56 292.75 1755.76 267.15 1743.76 C 241.55 1731.77 255.98 1766.4 256.0 1792.0 C 256.02 1817.6 269.78 1854.17 244.18 1840.65 C 218.58 1827.13 218.58 1878.33 244.18 1866.25 C 269.78 1854.17 258.9 1894.4 256.0 1920.0 C 253.1 1945.6 266.68 1986.25 241.08 1974.62 C 215.48 1962.99 215.48 2014.19 241.08 2000.22 C 266.68 1986.25 257.24 2022.4 256.0 2048.0 M 384.0,0.0 C 388.92 25.6 398.21 54.22 372.61 46.3 C 347.01 38.38 347.01 89.58 372.61 71.9 C 398.21 54.22 382.33 102.4 384.0 128.0 C 385.67 153.6 367.25 185.25 392.85 177.28 C 418.45 169.31 418.45 220.51 392.85 202.88 C 367.25 185.25 389.09 230.4 384.0 256.0 C 378.91 281.6 400.43 319.57 374.83 306.04 C 349.23 292.51 349.23 343.71 374.83 331.64 C 400.43 319.57 380.25 358.4 384.0 384.0 C 387.75 409.6 396.57 445.19 370.97 434.56 C 345.37 423.93 345.37 475.13 370.97 460.16 C 396.57 445.19 383.84 486.4 384.0 512.0 C 384.16 537.6 393.02 574.53 367.42 558.35 C 341.82 542.17 341.82 593.37 367.42 583.95 C 393.02 574.53 386.57 614.4 384.0 640.0 C 381.43 665.6 376.25 703.34 401.85 695.66 C 427.45 687.98 427.45 739.18 401.85 721.26 C 376.25 703.34 384.7 742.4 384.0 768.0 C 383.3 793.6 373.12 831.97 398.72 815.37 C 424.32 798.77 424.32 849.97 398.72 840.97 C 373.12 831.97 380.3 870.4 384.0 896.0 C 387.7 921.6 391.68 958.93 366.08 946.5 C 340.48 934.07 340.48 985.27 366.08 972.1 C 391.68 958.93 385.35 998.4 384.0 1024.0 C 382.65 1049.6 370.08 1093.5 395.68 1078.16 C 421.28 1062.82 421.28 1114.02 395.68 1103.76 C 370.08 1093.5 379.54 1126.4 384.0 1152.0 C 388.46 1177.6 366.83 1216.04 392.43 1201.91 C 418.03 1187.78 418.03 1238.98 392.43 1227.51 C 366.83 1216.04 382.55 1254.4 384.0 1280.0 C 385.45 1305.6 374.64 1341.49 400.24 1333.17 C 425.84 1324.84 425.84 1376.04 400.24 1358.77 C 374.64 1341.49 389.03 1382.4 384.0 1408.0 C 378.97 1433.6 372.58 1472.26 398.18 1457.26 C 423.78 1442.26 423.78 1493.46 398.18 1482.86 C 372.58 1472.26 384.42 1510.4 384.0 1536.0 C 383.58 1561.6 372.87 1594.8 398.47 1584.26 C 424.07 1573.73 424.07 1624.93 398.47 1609.86 C 372.87 1594.8 388.01 1638.4 384.0 1664.0 C 379.99 1689.6 398.29 1731.12 372.69 1715.56 C 347.09 1700.0 347.09 1751.2 372.69 1741.16 C 398.29 1731.12 386.77 1766.4 384.0 1792.0 C 381.23 1817.6 394.28 1852.55 368.68 1843.75 C 343.08 1834.95 343.08 1886.15 368.68 1869.35 C 394.28 1852.55 380.98 1894.4 384.0 1920.0 C 387.02 1945.6 371.19 1982.84 396.79 1969.96 C 422.39 1957.07 422.39 2008.27 396.79 1995.56 C 371.19 1982.84 384.96 2022.4 384.0 2048.0 M 512.0,0.0 C 509.82 25.6 497.4 70.17 523.0 52.67 C 548.6 35.17 548.6 86.37 523.0 78.27 C 497.4 70.17 510.15 102.4 512.0 128.0 C 513.85 153.6 527.13 193.0 501.53 177.01 C 475.93 161.02 475.93 212.22 501.53 202.61 C 527.13 193.0 516.92 230.4 512.0 256.0 C 507.08 281.6 527.76 315.21 502.16 306.1 C 476.56 296.99 476.56 348.19 502.16 331.7 C 527.76 315.21 513.02 358.4 512.0 384.0 C 510.98 409.6 497.51 443.38 523.11 433.37 C 548.71 423.36 548.71 474.56 523.11 458.97 C 497.51 443.38 515.21 486.4 512.0 512.0 C 508.79 537.6 497.1 573.36 522.7 563.27 C 548.3 553.18 548.3 604.38 522.7 588.87 C 497.1 573.36 510.57 614.4 512.0 640.0 C 513.43 665.6 498.84 703.72 524.44 689.79 C 550.04 675.85 550.04 727.05 524.44 715.39 C 498.84 703.72 508.52 742.4 512.0 768.0 C 515.48 793.6 495.55 835.98 521.15 823.59 C 546.75 811.2 546.75 862.4 521.15 849.19 C 495.55 835.98 509.28 870.4 512.0 896.0 C 514.72 921.6 523.76 961.97 498.16 951.96 C 472.56 941.94 472.56 993.14 498.16 977.56 C 523.76 961.97 512.93 998.4 512.0 1024.0 C 511.07 1049.6 525.62 1082.9 500.02 1071.69 C 474.42 1060.48 474.42 1111.68 500.02 1097.29 C 525.62 1082.9 511.02 1126.4 512.0 1152.0 C 512.98 1177.6 522.69 1211.8 497.09 1202.21 C 471.49 1192.62 471.49 1243.82 497.09 1227.81 C 522.69 1211.8 510.85 1254.4 512.0 1280.0 C 513.15 1305.6 522.07 1335.71 496.47 1327.62 C 470.87 1319.52 470.87 1370.72 496.47 1353.22 C 522.07 1335.71 515.75 1382.4 512.0 1408.0 C 508.25 1433.6 497.56 1468.79 523.16 1457.08 C 548.76 1445.36 548.76 1496.56 523.16 1482.68 C 497.56 1468.79 513.06 1510.4 512.0 1536.0 C 510.94 1561.6 529.03 1594.41 503.43 1582.98 C 477.83 1571.55 477.83 1622.75 503.43 1608.58 C 529.03 1594.41 509.16 1638.4 512.0 1664.0 C 514.84 1689.6 500.68 1722.88 526.28 1711.21 C 551.88 1699.53 551.88 1750.73 526.28 1736.81 C 500.68 1722.88 515.82 1766.4 512.0 1792.0 C 508.18 1817.6 502.48 1862.5 528.08 1846.69 C 553.68 1830.88 553.68 1882.08 528.08 1872.29 C 502.48 1862.5 515.53 1894.4 512.0 1920.0 C 508.47 1945.6 495.95 1978.82 521.55 1969.08 C 547.15 1959.35 547.15 2010.55 521.55 1994.68 C 495.95 1978.82 507.8 2022.4 512.0 2048.0 M 640.0,0.0 C 641.14 25.6 628.15 62.35 653.75 46.21 C 679.35 30.07 679.35 81.27 653.75 71.81 C 628.15 62.35 637.48 102.4 640.0 128.0 C 642.52 153.6 623.94 200.67 649.54 183.98 C 675.14 167.28 675.14 218.48 649.54 209.58 C 623.94 200.67 634.97 230.4 640.0 256.0 C 645.03 281.6 627.95 326.71 653.55 309.25 C 679.15 291.8 679.15 343.0 653.55 334.85 C 627.95 326.71 637.88 358.4 640.0 384.0 C 642.12 409.6 626.18 447.27 651.78 432.85 C 677.38 418.43 677.38 469.63 651.78 458.45 C 626.18 447.27 643.2 486.4 640.0 512.0 C 636.8 537.6 652.76 576.78 627.16 567.46 C 601.56 558.15 601.56 609.35 627.16 593.06 C 652.76 576.78 642.15 614.4 640.0 640.0 C 637.85 665.6 647.98 708.85 622.38 692.94 C 596.78 677.02 596.78 728.22 622.38 718.54 C 647.98 708.85 641.88 742.4 640.0 768.0 C 638.12 793.6 624.8 832.63 650.4 818.58 C 676.0 804.53 676.0 855.73 650.4 844.18 C 624.8 832.63 637.65 870.4 640.0 896.0 C 642.35 921.6 647.79 954.24 622.19 944.33 C 596.59 934.43 596.59 985.63 622.19 969.93 C 647.79 954.24 644.89 998.4 640.0 1024.0 C 635.11 1049.6 631.27 1088.02 656.87 1079.86 C 682.47 1071.7 682.47 1122.9 656.87 1105.46 C 631.27 1088.02 644.79 1126.4 640.0 1152.0 C 635.21 1177.6 623.28 1216.83 648.88 1200.62 C 674.48 1184.42 674.48 1235.62 648.88 1226.22 C 623.28 1216.83 640.0 1254.4 640.0 1280.0 C 640.0 1305.6 648.44 1349.49 622.84 1332.96 C 597.24 1316.42 597.24 1367.62 622.84 1358.56 C 648.44 1349.49 635.75 1382.4 640.0 1408.0 C 644.25 1433.6 655.42 1466.27 629.82 1455.86 C 604.22 1445.45 604.22 1496.65 629.82 1481.46 C 655.42 1466.27 639.51 1510.4 640.0 1536.0 C 640.49 1561.6 625.29 1601.96 650.89 1588.9 C 676.49 1575.84 676.49 1627.04 650.89 1614.5 C 625.29 1601.96 645.07 1638.4 640.0 1664.0 C 634.93 1689.6 652.96 1729.25 627.36 1713.52 C 601.76 1697.78 601.76 1748.98 627.36 1739.12 C 652.96 1729.25 644.49 1766.4 640.0 1792.0 C 635.51 1817.6 628.96 1858.14 654.56 1841.77 C 680.16 1825.39 680.16 1876.59 654.56 1867.37 C 628.96 1858.14 642.21 1894.4 640.0 1920.0 C 637.79 1945.6 628.29 1978.0 653.89 1969.32 C 679.49 1960.64 679.49 2011.84 653.89 1994.92 C 628.29 1978.0 640.98 2022.4 640.0 2048.0 M 768.0,0.0 C 765.51 25.6 756.09 61.94 781.69 50.41 C 807.29 38.89 807.29 90.09 781.69 76.01 C 756.09 61.94 769.13 102.4 768.0 128.0 C 766.87 153.6 781.37 185.03 755.77 175.01 C 730.17 164.99 730.17 216.19 755.77 200.61 C 781.37 185.03 771.84 230.4 768.0 256.0 C 764.16 281.6 785.55 324.62 759.95 309.6 C 734.35 294.57 734.35 345.77 759.95 335.2 C 785.55 324.62 763.77 358.4 768.0 384.0 C 772.23 409.6 779.61 446.48 754.01 432.84 C 728.41 419.21 728.41 470.41 754.01 458.44 C 779.61 446.48 769.59 486.4 768.0 512.0 C 766.41 537.6 784.37 570.02 758.77 560.55 C 733.17 551.09 733.17 602.29 758.77 586.15 C 784.37 570.02 770.43 614.4 768.0 640.0 C 765.57 665.6 750.8 701.12 776.4 691.76 C 802.0 682.4 802.0 733.6 776.4 717.36 C 750.8 701.12 763.83 742.4 768.0 768.0 C 772.17 793.6 782.9 832.98 757.3 818.16 C 731.7 803.34 731.7 854.54 757.3 843.76 C 782.9 832.98 772.79 870.4 768.0 896.0 C 763.21 921.6 752.4 959.98 778.0 950.24 C 803.6 940.51 803.6 991.71 778.0 975.84 C 752.4 959.98 771.55 998.4 768.0 1024.0 C 764.45 1049.6 757.21 1090.02 782.81 1077.03 C 808.41 1064.03 808.41 1115.23 782.81 1102.63 C 757.21 1090.02 768.73 1126.4 768.0 1152.0 C 767.27 1177.6 784.15 1214.35 758.55 1199.26 C 732.95 1184.16 732.95 1235.36 758.55 1224.86 C 784.15 1214.35 772.09 1254.4 768.0 1280.0 C 763.91 1305.6 778.8 1339.97 753.2 1326.3 C 727.6 1312.64 727.6 1363.84 753.2 1351.9 C 778.8 1339.97 765.13 1382.4 768.0 1408.0 C 770.87 1433.6 776.04 1474.48 750.44 1458.92 C 724.84 1443.37 724.84 1494.57 750.44 1484.52 C 776.04 1474.48 762.98 1510.4 768.0 1536.0 C 773.02 1561.6 760.0 1597.41 785.6 1585.82 C 811.2 1574.24 811.2 1625.44 785.6 1611.42 C 760.0 1597.41 767.16 1638.4 768.0 1664.0 C 768.84 1689.6 776.03 1725.86 750.43 1715.34 C 724.83 1704.82 724.83 1756.02 750.43 1740.94 C 776.03 1725.86 764.13 1766.4 768.0 1792.0 C 771.87 1817.6 781.07 1857.68 755.47 1847.77 C 729.87 1837.85 729.87 1889.05 755.47 1873.37 C 781.07 1857.68 765.55 1894.4 768.0 1920.0 C 770.45 1945.6 783.05 1987.52 757.45 1975.21 C 731.85 1962.9 731.85 2014.1 757.45 2000.81 C 783.05 1987.52 771.83 2022.4 768.0 2048.0 M 896.0,0.0 C 896.17 25.6 884.09 65.0 909.69 48.81 C 935.29 32.62 935.29 83.82 909.69 74.41 C 884.09 65.0 896.62 102.4 896.0 128.0 C 895.38 153.6 905.83 193.0 880.23 180.6 C 854.63 168.2 854.63 219.4 880.23 206.2 C 905.83 193.0 899.26 230.4 896.0 256.0 C 892.74 281.6 885.2 316.55 910.8 303.03 C 936.4 289.51 936.4 340.71 910.8 328.63 C 885.2 316.55 892.8 358.4 896.0 384.0 C 899.2 409.6 908.7 451.12 883.1 437.45 C 857.5 423.78 857.5 474.98 883.1 463.05 C 908.7 451.12 892.67 486.4 896.0 512.0 C 899.33 537.6 886.23 580.84 911.83 565.47 C 937.43 550.1 937.43 601.3 911.83 591.07 C 886.23 580.84 892.26 614.4 896.0 640.0 C 899.74 665.6 905.28 704.9 879.68 689.86 C 854.08 674.81 854.08 726.01 879.68 715.46 C 905.28 704.9 894.03 742.4 896.0 768.0 C 897.97 793.6 887.82 833.62 913.42 822.13 C 939.02 810.64 939.02 861.84 913.42 847.73 C 887.82 833.62 895.52 870.4 896.0 896.0 C 896.48 921.6 906.04 965.26 880.44 948.36 C 854.84 931.46 854.84 982.66 880.44 973.96 C 906.04 965.26 899.27 998.4 896.0 1024.0 C 892.73 1049.6 906.45 1087.31 880.85 1079.5 C 855.25 1071.7 855.25 1122.9 880.85 1105.1 C 906.45 1087.31 891.41 1126.4 896.0 1152.0 C 900.59 1177.6 905.92 1218.56 880.32 1201.3 C 854.72 1184.05 854.72 1235.25 880.32 1226.9 C 905.92 1218.56 898.53 1254.4 896.0 1280.0 C 893.47 1305.6 882.96 1348.93 908.56 1332.3 C 934.16 1315.68 934.16 1366.88 908.56 1357.9 C 882.96 1348.93 893.66 1382.4 896.0 1408.0 C 898.34 1433.6 908.15 1470.08 882.55 1460.95 C 856.95 1451.83 856.95 1503.03 882.55 1486.55 C 908.15 1470.08 894.32 1510.4 896.0 1536.0 C 897.68 1561.6 913.84 1595.13 888.24 1587.22 C 862.64 1579.32 862.64 1630.52 888.24 1612.82 C 913.84 1595.13 900.26 1638.4 896.0 1664.0 C 891.74 1689.6 884.03 1725.43 909.63 1717.03 C 935.23 1708.63 935.23 1759.83 909.63 1742.63 C 884.03 1725.43 891.64 1766.4 896.0 1792.0 C 900.36 1817.6 913.65 1858.38 888.05 1847.52 C 862.45 1836.65 862.45 1887.85 888.05 1873.12 C 913.65 1858.38 896.46 1894.4 896.0 1920.0 C 895.54 1945.6 906.66 1986.19 881.06 1969.02 C 855.46 1951.86 855.46 2003.06 881.06 1994.62 C 906.66 1986.19 898.15 2022.4 896.0 2048.0 M 1024.0,0.0 C 1022.41 25.6 1009.41 63.21 1035.01 49.36 C 1060.61 35.52 1060.61 86.72 1035.01 74.96 C 1009.41 63.21 1026.07 102.4 1024.0 128.0 C 1021.93 153.6 1035.37 184.66 1009.77 176.63 C 984.17 168.6 984.17 219.8 1009.77 202.23 C 1035.37 184.66 1023.48 230.4 1024.0 256.0 C 1024.52 281.6 1038.12 314.68 1012.52 302.59 C 986.92 290.51 986.92 341.71 1012.52 328.19 C 1038.12 314.68 1021.33 358.4 1024.0 384.0 C 1026.67 409.6 1041.85 449.24 1016.25 433.11 C 990.65 416.97 990.65 468.17 1016.25 458.71 C 1041.85 449.24 1029.1 486.4 1024.0 512.0 C 1018.9 537.6 1034.15 576.75 1008.55 568.15 C 982.95 559.54 982.95 610.74 1008.55 593.75 C 1034.15 576.75 1028.77 614.4 1024.0 640.0 C 1019.23 665.6 1010.91 705.14 1036.51 689.9 C 1062.11 674.67 1062.11 725.87 1036.51 715.5 C 1010.91 705.14 1019.47 742.4 1024.0 768.0 C 1028.53 793.6 1008.37 834.59 1033.97 822.35 C 1059.57 810.11 1059.57 861.31 1033.97 847.95 C 1008.37 834.59 1026.59 870.4 1024.0 896.0 C 1021.41 921.6 1034.83 955.65 1009.23 944.74 C 983.63 933.84 983.63 985.04 1009.23 970.34 C 1034.83 955.65 1028.13 998.4 1024.0 1024.0 C 1019.87 1049.6 1038.12 1089.68 1012.52 1071.85 C 986.92 1054.01 986.92 1105.21 1012.52 1097.45 C 1038.12 1089.68 1025.16 1126.4 1024.0 1152.0 C 1022.84 1177.6 1007.63 1215.4 1033.23 1200.6 C 1058.83 1185.81 1058.83 1237.01 1033.23 1226.2 C 1007.63 1215.4 1028.89 1254.4 1024.0 1280.0 C 1019.11 1305.6 1035.69 1350.22 1010.09 1336.25 C 984.49 1322.29 984.49 1373.49 1010.09 1361.85 C 1035.69 1350.22 1019.65 1382.4 1024.0 1408.0 C 1028.35 1433.6 1038.35 1465.41 1012.75 1457.57 C 987.15 1449.72 987.15 1500.92 1012.75 1483.17 C 1038.35 1465.41 1021.32 1510.4 1024.0 1536.0 C 1026.68 1561.6 1032.27 1596.41 1006.67 1588.3 C 981.07 1580.18 981.07 1631.38 1006.67 1613.9 C 1032.27 1596.41 1022.36 1638.4 1024.0 1664.0 C 1025.64 1689.6 1041.83 1727.71 1016.23 1711.54 C 990.63 1695.37 990.63 1746.57 1016.23 1737.14 C 1041.83 1727.71 1024.13 1766.4 1024.0 1792.0 C 1023.87 1817.6 1016.22 1849.33 1041.82 1839.6 C 1067.42 1829.87 1067.42 1881.07 1041.82 1865.2 C 1016.22 1849.33 1027.75 1894.4 1024.0 1920.0 C 1020.25 1945.6 1012.56 1983.26 1038.16 1972.0 C 1063.76 1960.74 1063.76 2011.94 1038.16 1997.6 C 1012.56 1983.26 1027.69 2022.4 1024.0 2048.0 M 1152.0,0.0 C 1153.55 25.6 1140.83 67.43 1166.43 54.65 C 1192.03 41.87 1192.03 93.07 1166.43 80.25 C 1140.83 67.43 1154.49 102.4 1152.0 128.0 C 1149.51 153.6 1168.42 191.85 1142.82 176.52 C 1117.22 161.18 1117.22 212.38 1142.82 202.12 C 1168.42 191.85 1153.36 230.4 1152.0 256.0 C 1150.64 281.6 1136.74 324.65 1162.34 310.18 C 1187.94 295.71 1187.94 346.91 1162.34 335.78 C 1136.74 324.65 1148.7 358.4 1152.0 384.0 C 1155.3 409.6 1144.19 443.21 1169.79 435.08 C 1195.39 426.94 1195.39 478.14 1169.79 460.68 C 1144.19 443.21 1151.08 486.4 1152.0 512.0 C 1152.92 537.6 1134.09 575.57 1159.69 564.82 C 1185.29 554.08 1185.29 605.28 1159.69 590.42 C 1134.09 575.57 1148.99 614.4 1152.0 640.0 C 1155.01 665.6 1140.29 697.18 1165.89 686.41 C 1191.49 675.64 1191.49 726.84 1165.89 712.01 C 1140.29 697.18 1148.34 742.4 1152.0 768.0 C 1155.66 793.6 1137.28 829.46 1162.88 817.12 C 1188.48 804.79 1188.48 855.99 1162.88 842.72 C 1137.28 829.46 1152.68 870.4 1152.0 896.0 C 1151.32 921.6 1140.05 953.68 1165.65 942.89 C 1191.25 932.09 1191.25 983.29 1165.65 968.49 C 1140.05 953.68 1149.33 998.4 1152.0 1024.0 C 1154.67 1049.6 1138.95 1092.46 1164.55 1075.24 C 1190.15 1058.02 1190.15 1109.22 1164.55 1100.84 C 1138.95 1092.46 1153.81 1126.4 1152.0 1152.0 C 1150.19 1177.6 1165.02 1217.17 1139.42 1200.8 C 1113.82 1184.44 1113.82 1235.64 1139.42 1226.4 C 1165.02 1217.17 1147.82 1254.4 1152.0 1280.0 C 1156.18 1305.6 1143.9 1352.12 1169.5 1336.11 C 1195.1 1320.11 1195.1 1371.31 1169.5 1361.71 C 1143.9 1352.12 1154.31 1382.4 1152.0 1408.0 C 1149.69 1433.6 1134.13 1480.36 1159.73 1463.66 C 1185.33 1446.96 1185.33 1498.16 1159.73 1489.26 C 1134.13 1480.36 1156.23 1510.4 1152.0 1536.0 C 1147.77 1561.6 1139.79 1596.64 1165.39 1585.25 C 1190.99 1573.85 1190.99 1625.05 1165.39 1610.85 C 1139.79 1596.64 1149.11 1638.4 1152.0 1664.0 C 1154.89 1689.6 1162.72 1734.95 1137.12 1717.84 C 1111.52 1700.72 1111.52 1751.92 1137.12 1743.44 C 1162.72 1734.95 1156.77 1766.4 1152.0 1792.0 C 1147.23 1817.6 1169.56 1859.64 1143.96 1846.93 C 1118.36 1834.23 1118.36 1885.43 1143.96 1872.53 C 1169.56 1859.64 1151.36 1894.4 1152.0 1920.0 C 1152.64 1945.6 1140.41 1983.6 1166.01 1973.46 C 1191.61 1963.32 1191.61 2014.52 1166.01 1999.06 C 1140.41 1983.6 1156.73 2022.4 1152.0 2048.0 M 1280.0,0.0 C 1285.08 25.6 1290.84 63.06 1265.24 55.14 C 1239.64 47.22 1239.64 98.42 1265.24 80.74 C 1290.84 63.06 1282.7 102.4 1280.0 128.0 C 1277.3 153.6 1262.81 195.55 1288.41 180.12 C 1314.01 164.7 1314.01 215.9 1288.41 205.72 C 1262.81 195.55 1279.39 230.4 1280.0 256.0 C 1280.61 281.6 1265.7 318.43 1291.3 306.02 C 1316.9 293.61 1316.9 344.81 1291.3 331.62 C 1265.7 318.43 1284.11 358.4 1280.0 384.0 C 1275.89 409.6 1291.25 445.28 1265.65 434.69 C 1240.05 424.11 1240.05 475.31 1265.65 460.29 C 1291.25 445.28 1277.59 486.4 1280.0 512.0 C 1282.41 537.6 1265.6 577.77 1291.2 562.3 C 1316.8 546.83 1316.8 598.03 1291.2 587.9 C 1265.6 577.77 1284.97 614.4 1280.0 640.0 C 1275.03 665.6 1297.6 701.92 1272.0 688.71 C 1246.4 675.5 1246.4 726.7 1272.0 714.31 C 1297.6 701.92 1282.19 742.4 1280.0 768.0 C 1277.81 793.6 1270.8 825.55 1296.4 816.44 C 1322.0 807.32 1322.0 858.52 1296.4 842.04 C 1270.8 825.55 1275.37 870.4 1280.0 896.0 C 1284.63 921.6 1295.9 966.02 1270.3 948.72 C 1244.7 931.42 1244.7 982.62 1270.3 974.32 C 1295.9 966.02 1284.15 998.4 1280.0 1024.0 C 1275.85 1049.6 1265.84 1085.98 1291.44 1074.02 C 1317.04 1062.05 1317.04 1113.25 1291.44 1099.62 C 1265.84 1085.98 1277.22 1126.4 1280.0 1152.0 C 1282.78 1177.6 1265.34 1214.04 1290.94 1200.2 C 1316.54 1186.36 1316.54 1237.56 1290.94 1225.8 C 1265.34 1214.04 1279.98 1254.4 1280.0 1280.0 C 1280.02 1305.6 1291.56 1339.42 1265.96 1326.7 C 1240.36 1313.97 1240.36 1365.17 1265.96 1352.3 C 1291.56 1339.42 1281.18 1382.4 1280.0 1408.0 C 1278.82 1433.6 1271.7 1463.69 1297.3 1454.92 C 1322.9 1446.15 1322.9 1497.35 1297.3 1480.52 C 1271.7 1463.69 1280.23 1510.4 1280.0 1536.0 C 1279.77 1561.6 1290.66 1600.31 1265.06 1589.83 C 1239.46 1579.35 1239.46 1630.55 1265.06 1615.43 C 1290.66 1600.31 1278.45 1638.4 1280.0 1664.0 C 1281.55 1689.6 1294.64 1729.85 1269.04 1714.6 C 1243.44 1699.35 1243.44 1750.55 1269.04 1740.2 C 1294.64 1729.85 1283.91 1766.4 1280.0 1792.0 C 1276.09 1817.6 1270.13 1864.57 1295.73 1847.75 C 1321.33 1830.92 1321.33 1882.12 1295.73 1873.35 C 1270.13 1864.57 1278.14 1894.4 1280.0 1920.0 C 1281.86 1945.6 1270.06 1977.59 1295.66 1967.32 C 1321.26 1957.05 1321.26 2008.25 1295.66 1992.92 C 1270.06 1977.59 1281.69 2022.4 1280.0 2048.0 M 1408.0,0.0 C 1405.83 25.6 1419.27 69.94 1393.67 54.51 C 1368.07 39.09 1368.07 90.29 1393.67 80.11 C 1419.27 69.94 1411.38 102.4 1408.0 128.0 C 1404.62 153.6 1419.28 186.85 1393.68 178.09 C 1368.08 169.33 1368.08 220.53 1393.68 203.69 C 1419.28 186.85 1404.42 230.4 1408.0 256.0 C 1411.58 281.6 1419.44 312.02 1393.84 303.11 C 1368.24 294.21 1368.24 345.41 1393.84 328.71 C 1419.44 312.02 1403.36 358.4 1408.0 384.0 C 1412.64 409.6 1396.3 444.85 1421.9 435.2 C 1447.5 425.54 1447.5 476.74 1421.9 460.8 C 1396.3 444.85 1405.71 486.4 1408.0 512.0 C 1410.29 537.6 1424.42 581.31 1398.82 567.6 C 1373.22 553.89 1373.22 605.09 1398.82 593.2 C 1424.42 581.31 1408.03 614.4 1408.0 640.0 C 1407.97 665.6 1424.16 701.36 1398.56 686.83 C 1372.96 672.3 1372.96 723.5 1398.56 712.43 C 1424.16 701.36 1405.79 742.4 1408.0 768.0 C 1410.21 793.6 1400.09 829.28 1425.69 821.38 C 1451.29 813.47 1451.29 864.67 1425.69 846.98 C 1400.09 829.28 1406.49 870.4 1408.0 896.0 C 1409.51 921.6 1395.91 961.74 1421.51 945.11 C 1447.11 928.48 1447.11 979.68 1421.51 970.71 C 1395.91 961.74 1403.27 998.4 1408.0 1024.0 C 1412.73 1049.6 1394.99 1078.94 1420.59 1070.52 C 1446.19 1062.11 1446.19 1113.31 1420.59 1096.12 C 1394.99 1078.94 1406.85 1126.4 1408.0 1152.0 C 1409.15 1177.6 1396.22 1212.36 1421.82 1199.31 C 1447.42 1186.25 1447.42 1237.45 1421.82 1224.91 C 1396.22 1212.36 1404.98 1254.4 1408.0 1280.0 C 1411.02 1305.6 1416.34 1347.92 1390.74 1335.99 C 1365.14 1324.05 1365.14 1375.25 1390.74 1361.59 C 1416.34 1347.92 1410.16 1382.4 1408.0 1408.0 C 1405.84 1433.6 1394.08 1471.32 1419.68 1463.57 C 1445.28 1455.82 1445.28 1507.02 1419.68 1489.17 C 1394.08 1471.32 1404.21 1510.4 1408.0 1536.0 C 1411.79 1561.6 1393.86 1601.1 1419.46 1590.78 C 1445.06 1580.45 1445.06 1631.65 1419.46 1616.38 C 1393.86 1601.1 1411.71 1638.4 1408.0 1664.0 C 1404.29 1689.6 1419.67 1728.49 1394.07 1715.71 C 1368.47 1702.93 1368.47 1754.13 1394.07 1741.31 C 1419.67 1728.49 1406.52 1766.4 1408.0 1792.0 C 1409.48 1817.6 1397.05 1850.32 1422.65 1839.64 C 1448.25 1828.95 1448.25 1880.15 1422.65 1865.24 C 1397.05 1850.32 1404.11 1894.4 1408.0 1920.0 C 1411.89 1945.6 1424.46 1983.15 1398.86 1970.07 C 1373.26 1956.99 1373.26 2008.19 1398.86 1995.67 C 1424.46 1983.15 1410.82 2022.4 1408.0 2048.0 M 1536.0,0.0 C 1532.81 25.6 1518.57 69.35 1544.17 53.55 C 1569.77 37.75 1569.77 88.95 1544.17 79.15 C 1518.57 69.35 1537.54 102.4 1536.0 128.0 C 1534.46 153.6 1546.19 187.85 1520.59 176.32 C 1494.99 164.78 1494.99 215.98 1520.59 201.92 C 1546.19 187.85 1535.91 230.4 1536.0 256.0 C 1536.09 281.6 1543.88 325.95 1518.28 309.56 C 1492.68 293.17 1492.68 344.37 1518.28 335.16 C 1543.88 325.95 1538.18 358.4 1536.0 384.0 C 1533.82 409.6 1526.49 447.25 1552.09 432.97 C 1577.69 418.68 1577.69 469.88 1552.09 458.57 C 1526.49 447.25 1532.96 486.4 1536.0 512.0 C 1539.04 537.6 1525.13 579.75 1550.73 565.78 C 1576.33 551.81 1576.33 603.01 1550.73 591.38 C 1525.13 579.75 1539.23 614.4 1536.0 640.0 C 1532.77 665.6 1548.94 705.36 1523.34 690.51 C 1497.74 675.66 1497.74 726.86 1523.34 716.11 C 1548.94 705.36 1540.34 742.4 1536.0 768.0 C 1531.66 793.6 1519.66 829.02 1545.26 820.42 C 1570.86 811.82 1570.86 863.02 1545.26 846.02 C 1519.66 829.02 1537.11 870.4 1536.0 896.0 C 1534.89 921.6 1544.47 963.71 1518.87 948.5 C 1493.27 933.29 1493.27 984.49 1518.87 974.1 C 1544.47 963.71 1539.18 998.4 1536.0 1024.0 C 1532.82 1049.6 1551.63 1081.72 1526.03 1073.58 C 1500.43 1065.44 1500.43 1116.64 1526.03 1099.18 C 1551.63 1081.72 1532.78 1126.4 1536.0 1152.0 C 1539.22 1177.6 1522.8 1217.23 1548.4 1206.95 C 1574.0 1196.68 1574.0 1247.88 1548.4 1232.55 C 1522.8 1217.23 1540.15 1254.4 1536.0 1280.0 C 1531.85 1305.6 1524.62 1340.73 1550.22 1329.68 C 1575.82 1318.63 1575.82 1369.83 1550.22 1355.28 C 1524.62 1340.73 1539.82 1382.4 1536.0 1408.0 C 1532.18 1433.6 1544.44 1477.84 1518.84 1462.65 C 1493.24 1447.47 1493.24 1498.67 1518.84 1488.25 C 1544.44 1477.84 1541.04 1510.4 1536.0 1536.0 C 1530.96 1561.6 1550.92 1601.9 1525.32 1587.82 C 1499.72 1573.73 1499.72 1624.93 1525.32 1613.42 C 1550.92 1601.9 1537.51 1638.4 1536.0 1664.0 C 1534.49 1689.6 1547.26 1727.78 1521.66 1710.89 C 1496.06 1693.99 1496.06 1745.19 1521.66 1736.49 C 1547.26 1727.78 1538.44 1766.4 1536.0 1792.0 C 1533.56 1817.6 1519.12 1857.35 1544.72 1839.8 C 1570.32 1822.25 1570.32 1873.45 1544.72 1865.4 C 1519.12 1857.35 1532.4 1894.4 1536.0 1920.0 C 1539.6 1945.6 1546.74 1984.91 1521.14 1970.16 C 1495.54 1955.42 1495.54 2006.62 1521.14 1995.76 C 1546.74 1984.91 1541.11 2022.4 1536.0 2048.0 M 1664.0,0.0 C 1668.11 25.6 1675.52 67.59 1649.92 53.18 C 1624.32 38.77 1624.32 89.97 1649.92 78.78 C 1675.52 67.59 1660.01 102.4 1664.0 128.0 C 1667.99 153.6 1649.03 195.5 1674.63 183.7 C 1700.23 171.9 1700.23 223.1 1674.63 209.3 C 1649.03 195.5 1668.87 230.4 1664.0 256.0 C 1659.13 281.6 1646.42 319.82 1672.02 307.02 C 1697.62 294.23 1697.62 345.43 1672.02 332.62 C 1646.42 319.82 1667.1 358.4 1664.0 384.0 C 1660.9 409.6 1650.84 447.36 1676.44 433.0 C 1702.04 418.64 1702.04 469.84 1676.44 458.6 C 1650.84 447.36 1662.29 486.4 1664.0 512.0 C 1665.71 537.6 1680.18 571.29 1654.58 558.82 C 1628.98 546.35 1628.98 597.55 1654.58 584.42 C 1680.18 571.29 1668.29 614.4 1664.0 640.0 C 1659.71 665.6 1673.85 702.12 1648.25 693.84 C 1622.65 685.55 1622.65 736.75 1648.25 719.44 C 1673.85 702.12 1661.64 742.4 1664.0 768.0 C 1666.36 793.6 1651.57 833.34 1677.17 822.61 C 1702.77 811.88 1702.77 863.08 1677.17 848.21 C 1651.57 833.34 1667.36 870.4 1664.0 896.0 C 1660.64 921.6 1673.7 962.12 1648.1 949.15 C 1622.5 936.18 1622.5 987.38 1648.1 974.75 C 1673.7 962.12 1658.91 998.4 1664.0 1024.0 C 1669.09 1049.6 1650.32 1089.07 1675.92 1076.7 C 1701.52 1064.33 1701.52 1115.53 1675.92 1102.3 C 1650.32 1089.07 1664.89 1126.4 1664.0 1152.0 C 1663.11 1177.6 1672.48 1215.61 1646.88 1206.26 C 1621.28 1196.9 1621.28 1248.1 1646.88 1231.86 C 1672.48 1215.61 1664.81 1254.4 1664.0 1280.0 C 1663.19 1305.6 1673.87 1347.9 1648.27 1333.97 C 1622.67 1320.05 1622.67 1371.25 1648.27 1359.57 C 1673.87 1347.9 1660.2 1382.4 1664.0 1408.0 C 1667.8 1433.6 1655.27 1470.39 1680.87 1454.28 C 1706.47 1438.17 1706.47 1489.37 1680.87 1479.88 C 1655.27 1470.39 1662.1 1510.4 1664.0 1536.0 C 1665.9 1561.6 1673.49 1595.41 1647.89 1586.43 C 1622.29 1577.46 1622.29 1628.66 1647.89 1612.03 C 1673.49 1595.41 1664.24 1638.4 1664.0 1664.0 C 1663.76 1689.6 1673.83 1734.37 1648.23 1719.09 C 1622.63 1703.8 1622.63 1755.0 1648.23 1744.69 C 1673.83 1734.37 1667.89 1766.4 1664.0 1792.0 C 1660.11 1817.6 1653.57 1848.42 1679.17 1838.56 C 1704.77 1828.69 1704.77 1879.89 1679.17 1864.16 C 1653.57 1848.42 1662.45 1894.4 1664.0 1920.0 C 1665.55 1945.6 1676.38 1981.26 1650.78 1969.29 C 1625.18 1957.31 1625.18 2008.51 1650.78 1994.89 C 1676.38 1981.26 1659.76 2022.4 1664.0 2048.0 M 1792.0,0.0 C 1790.46 25.6 1778.47 54.68 1804.07 46.63 C 1829.67 38.59 1829.67 89.79 1804.07 72.23 C 1778.47 54.68 1789.85 102.4 1792.0 128.0 C 1794.15 153.6 1782.43 195.37 1808.03 181.59 C 1833.63 167.81 1833.63 219.01 1808.03 207.19 C 1782.43 195.37 1790.07 230.4 1792.0 256.0 C 1793.93 281.6 1783.44 312.32 1809.04 304.53 C 1834.64 296.73 1834.64 347.93 1809.04 330.13 C 1783.44 312.32 1795.65 358.4 1792.0 384.0 C 1788.35 409.6 1804.1 454.55 1778.5 438.7 C 1752.9 422.85 1752.9 474.05 1778.5 464.3 C 1804.1 454.55 1787.44 486.4 1792.0 512.0 C 1796.56 537.6 1783.36 584.14 1808.96 567.55 C 1834.56 550.95 1834.56 602.15 1808.96 593.15 C 1783.36 584.14 1791.88 614.4 1792.0 640.0 C 1792.12 665.6 1804.23 701.09 1778.63 687.21 C 1753.03 673.33 1753.03 724.53 1778.63 712.81 C 1804.23 701.09 1787.01 742.4 1792.0 768.0 C 1796.99 793.6 1777.16 834.45 1802.76 820.84 C 1828.36 807.24 1828.36 858.44 1802.76 846.44 C 1777.16 834.45 1791.41 870.4 1792.0 896.0 C 1792.59 921.6 1779.95 958.12 1805.55 943.61 C 1831.15 929.1 1831.15 980.3 1805.55 969.21 C 1779.95 958.12 1789.99 998.4 1792.0 1024.0 C 1794.01 1049.6 1800.08 1087.98 1774.48 1079.74 C 1748.88 1071.5 1748.88 1122.7 1774.48 1105.34 C 1800.08 1087.98 1791.3 1126.4 1792.0 1152.0 C 1792.7 1177.6 1803.47 1210.04 1777.87 1201.84 C 1752.27 1193.63 1752.27 1244.83 1777.87 1227.44 C 1803.47 1210.04 1796.6 1254.4 1792.0 1280.0 C 1787.4 1305.6 1803.96 1348.29 1778.36 1331.74 C 1752.76 1315.18 1752.76 1366.38 1778.36 1357.34 C 1803.96 1348.29 1788.23 1382.4 1792.0 1408.0 C 1795.77 1433.6 1804.84 1473.93 1779.24 1460.45 C 1753.64 1446.98 1753.64 1498.18 1779.24 1486.05 C 1804.84 1473.93 1791.28 1510.4 1792.0 1536.0 C 1792.72 1561.6 1801.68 1592.14 1776.08 1583.65 C 1750.48 1575.16 1750.48 1626.36 1776.08 1609.25 C 1801.68 1592.14 1793.86 1638.4 1792.0 1664.0 C 1790.14 1689.6 1808.51 1719.42 1782.91 1711.68 C 1757.31 1703.94 1757.31 1755.14 1782.91 1737.28 C 1808.51 1719.42 1790.82 1766.4 1792.0 1792.0 C 1793.18 1817.6 1779.23 1852.77 1804.83 1839.36 C 1830.43 1825.95 1830.43 1877.15 1804.83 1864.96 C 1779.23 1852.77 1794.63 1894.4 1792.0 1920.0 C 1789.37 1945.6 1779.06 1984.99 1804.66 1968.23 C 1830.26 1951.46 1830.26 2002.66 1804.66 1993.83 C 1779.06 1984.99 1792.59 2022.4 1792.0 2048.0 M 1920.0,0.0 C 1924.93 25.6 1928.42 67.17 1902.82 54.08 C 1877.22 40.98 1877.22 92.18 1902.82 79.68 C 1928.42 67.17 1921.11 102.4 1920.0 128.0 C 1918.89 153.6 1911.46 191.88 1937.06 174.47 C 1962.66 157.06 1962.66 208.26 1937.06 200.07 C 1911.46 191.88 1921.87 230.4 1920.0 256.0 C 1918.13 281.6 1933.2 318.11 1907.6 306.13 C 1882.0 294.15 1882.0 345.35 1907.6 331.73 C 1933.2 318.11 1924.77 358.4 1920.0 384.0 C 1915.23 409.6 1929.88 446.18 1904.28 431.82 C 1878.68 417.46 1878.68 468.66 1904.28 457.42 C 1929.88 446.18 1924.68 486.4 1920.0 512.0 C 1915.32 537.6 1909.4 579.59 1935.0 567.12 C 1960.6 554.64 1960.6 605.84 1935.0 592.72 C 1909.4 579.59 1916.66 614.4 1920.0 640.0 C 1923.34 665.6 1904.33 699.8 1929.93 690.6 C 1955.53 681.4 1955.53 732.6 1929.93 716.2 C 1904.33 699.8 1923.33 742.4 1920.0 768.0 C 1916.67 793.6 1936.94 835.36 1911.34 821.39 C 1885.74 807.42 1885.74 858.62 1911.34 846.99 C 1936.94 835.36 1923.81 870.4 1920.0 896.0 C 1916.19 921.6 1904.35 965.58 1929.95 948.32 C 1955.55 931.05 1955.55 982.25 1929.95 973.92 C 1904.35 965.58 1916.44 998.4 1920.0 1024.0 C 1923.56 1049.6 1933.52 1086.51 1907.92 1075.52 C 1882.32 1064.54 1882.32 1115.74 1907.92 1101.12 C 1933.52 1086.51 1923.48 1126.4 1920.0 1152.0 C 1916.52 1177.6 1932.9 1216.41 1907.3 1203.68 C 1881.7 1190.95 1881.7 1242.15 1907.3 1229.28 C 1932.9 1216.41 1920.94 1254.4 1920.0 1280.0 C 1919.06 1305.6 1909.17 1343.05 1934.77 1332.75 C 1960.37 1322.45 1960.37 1373.65 1934.77 1358.35 C 1909.17 1343.05 1924.16 1382.4 1920.0 1408.0 C 1915.84 1433.6 1928.24 1463.87 1902.64 1454.27 C 1877.04 1444.66 1877.04 1495.86 1902.64 1479.87 C 1928.24 1463.87 1923.27 1510.4 1920.0 1536.0 C 1916.73 1561.6 1934.51 1597.45 1908.91 1587.63 C 1883.31 1577.8 1883.31 1629.0 1908.91 1613.23 C 1934.51 1597.45 1920.61 1638.4 1920.0 1664.0 C 1919.39 1689.6 1903.91 1733.04 1929.51 1716.1 C 1955.11 1699.16 1955.11 1750.36 1929.51 1741.7 C 1903.91 1733.04 1916.99 1766.4 1920.0 1792.0 C 1923.01 1817.6 1928.6 1859.49 1903.0 1845.12 C 1877.4 1830.75 1877.4 1881.95 1903.0 1870.72 C 1928.6 1859.49 1925.05 1894.4 1920.0 1920.0 C 1914.95 1945.6 1904.21 1978.05 1929.81 1969.27 C 1955.41 1960.49 1955.41 2011.69 1929.81 1994.87 C 1904.21 1978.05 1919.38 2022.4 1920.0 2048.0 "></path><path fill="none" stroke="Black" stroke-width="0.1" d="M 2.0 0.0 L 2046.0 0.0 A 2.0 2.0 0 0 1 2048.0 2.0 L 2048.0 2046.0 A 2.0 2.0 0 0 1 2046.0 2048.0 L 2.0 2048.0 A 2.0 2.0 0 0 1 0.0 2046.0 L 0.0 2.0 A 2.0 2.0 0 0 1 2.0 0.0 "></path></svg>